<?xml version="1.0" encoding="UTF-8"?>
<svg version="1.1" xmlns="http://www.w3.org/2000/svg" width="256" height="256">
<path d="M0 0 C15.51 0 31.02 0 47 0 C47 1.98 47 3.96 47 6 C54.59 6 62.18 6 70 6 C70 7.98 70 9.96 70 12 C73.96 12 77.92 12 82 12 C82 13.65 82 15.3 82 17 C83.98 17 85.96 17 88 17 C88 18.98 88 20.96 88 23 C91.63 23 95.26 23 99 23 C99 24.98 99 26.96 99 29 C100.98 29 102.96 29 105 29 C105 30.98 105 32.96 105 35 C106.98 35 108.96 35 111 35 C111 36.65 111 38.3 111 40 C112.65 40 114.3 40 116 40 C116 41.98 116 43.96 116 46 C117.98 46 119.96 46 122 46 C122 47.98 122 49.96 122 52 C123.98 52 125.96 52 128 52 C128 55.63 128 59.26 128 63 C129.98 63 131.96 63 134 63 C134 64.98 134 66.96 134 69 C135.65 69 137.3 69 139 69 C139 72.96 139 76.92 139 81 C140.98 81 142.96 81 145 81 C145 88.59 145 96.18 145 104 C146.98 104 148.96 104 151 104 C151 119.51 151 135.02 151 151 C149.02 151 147.04 151 145 151 C145 158.59 145 166.18 145 174 C143.02 174 141.04 174 139 174 C139 177.96 139 181.92 139 186 C137.35 186 135.7 186 134 186 C134 187.98 134 189.96 134 192 C132.02 192 130.04 192 128 192 C128 195.63 128 199.26 128 203 C126.02 203 124.04 203 122 203 C122 204.98 122 206.96 122 209 C120.02 209 118.04 209 116 209 C116 210.98 116 212.96 116 215 C114.35 215 112.7 215 111 215 C111 216.65 111 218.3 111 220 C109.02 220 107.04 220 105 220 C105 221.98 105 223.96 105 226 C103.02 226 101.04 226 99 226 C99 227.98 99 229.96 99 232 C95.37 232 91.74 232 88 232 C88 233.98 88 235.96 88 238 C86.02 238 84.04 238 82 238 C82 239.65 82 241.3 82 243 C78.04 243 74.08 243 70 243 C70 244.98 70 246.96 70 249 C62.41 249 54.82 249 47 249 C47 250.98 47 252.96 47 255 C31.49 255 15.98 255 0 255 C0 253.02 0 251.04 0 249 C-7.59 249 -15.18 249 -23 249 C-23 247.02 -23 245.04 -23 243 C-26.96 243 -30.92 243 -35 243 C-35 241.35 -35 239.7 -35 238 C-36.98 238 -38.96 238 -41 238 C-41 236.02 -41 234.04 -41 232 C-44.63 232 -48.26 232 -52 232 C-52 230.02 -52 228.04 -52 226 C-53.98 226 -55.96 226 -58 226 C-58 224.02 -58 222.04 -58 220 C-59.98 220 -61.96 220 -64 220 C-64 218.35 -64 216.7 -64 215 C-65.65 215 -67.3 215 -69 215 C-69 213.02 -69 211.04 -69 209 C-70.98 209 -72.96 209 -75 209 C-75 207.02 -75 205.04 -75 203 C-76.98 203 -78.96 203 -81 203 C-81 199.37 -81 195.74 -81 192 C-82.98 192 -84.96 192 -87 192 C-87 190.02 -87 188.04 -87 186 C-88.65 186 -90.3 186 -92 186 C-92 182.04 -92 178.08 -92 174 C-93.98 174 -95.96 174 -98 174 C-98 166.41 -98 158.82 -98 151 C-99.98 151 -101.96 151 -104 151 C-104 135.49 -104 119.98 -104 104 C-102.02 104 -100.04 104 -98 104 C-98 96.41 -98 88.82 -98 81 C-96.02 81 -94.04 81 -92 81 C-92 77.04 -92 73.08 -92 69 C-90.35 69 -88.7 69 -87 69 C-87 67.02 -87 65.04 -87 63 C-85.02 63 -83.04 63 -81 63 C-81 59.37 -81 55.74 -81 52 C-79.02 52 -77.04 52 -75 52 C-75 50.02 -75 48.04 -75 46 C-73.02 46 -71.04 46 -69 46 C-69 44.02 -69 42.04 -69 40 C-67.35 40 -65.7 40 -64 40 C-64 38.35 -64 36.7 -64 35 C-62.02 35 -60.04 35 -58 35 C-58 33.02 -58 31.04 -58 29 C-56.02 29 -54.04 29 -52 29 C-52 27.02 -52 25.04 -52 23 C-48.37 23 -44.74 23 -41 23 C-41 21.02 -41 19.04 -41 17 C-39.02 17 -37.04 17 -35 17 C-35 15.35 -35 13.7 -35 12 C-31.04 12 -27.08 12 -23 12 C-23 10.02 -23 8.04 -23 6 C-15.41 6 -7.82 6 0 6 C0 4.02 0 2.04 0 0 Z " fill="#69BD2F" transform="translate(105,1)"/>
<path d="M0 0 C22.77 0 45.54 0 69 0 C69 1.98 69 3.96 69 6 C70.98 6 72.96 6 75 6 C75 7.65 75 9.3 75 11 C76.65 11 78.3 11 80 11 C80 12.98 80 14.96 80 17 C81.98 17 83.96 17 86 17 C86 18.98 86 20.96 86 23 C87.98 23 89.96 23 92 23 C92 28.61 92 34.22 92 40 C93.98 40 95.96 40 98 40 C98 41.98 98 43.96 98 46 C107.24 46 116.48 46 126 46 C126 47.98 126 49.96 126 52 C122.37 52 118.74 52 115 52 C115 55.63 115 59.26 115 63 C109.39 63 103.78 63 98 63 C98 64.98 98 66.96 98 69 C96.02 69 94.04 69 92 69 C92 72.63 92 76.26 92 80 C90.02 80 88.04 80 86 80 C86 81.98 86 83.96 86 86 C84.02 86 82.04 86 80 86 C80 87.65 80 89.3 80 91 C76.37 91 72.74 91 69 91 C69 92.98 69 94.96 69 97 C65.37 97.33 61.74 97.66 58 98 C57.67 99.65 57.34 101.3 57 103 C42.15 103 27.3 103 12 103 C11.67 101.35 11.34 99.7 11 98 C5.555 97.505 5.555 97.505 0 97 C0 95.02 0 93.04 0 91 C-3.63 91 -7.26 91 -11 91 C-11.33 85.72 -11.66 80.44 -12 75 C-15.3 74.67 -18.6 74.34 -22 74 C-22 72.35 -22 70.7 -22 69 C-24.31 69 -26.62 69 -29 69 C-29 67.02 -29 65.04 -29 63 C-34.61 63 -40.22 63 -46 63 C-46 61.02 -46 59.04 -46 57 C-49.63 57 -53.26 57 -57 57 C-57 53.37 -57 49.74 -57 46 C-47.76 46 -38.52 46 -29 46 C-29 44.02 -29 42.04 -29 40 C-27.02 40 -25.04 40 -23 40 C-23 34.39 -23 28.78 -23 23 C-21.02 23 -19.04 23 -17 23 C-17 21.02 -17 19.04 -17 17 C-15.35 17 -13.7 17 -12 17 C-12 15.02 -12 13.04 -12 11 C-10.02 11 -8.04 11 -6 11 C-6 9.02 -6 7.04 -6 5 C-4.02 5 -2.04 5 0 5 C0 3.35 0 1.7 0 0 Z " fill="#96C701" transform="translate(94,77)"/>
<path d="M0 0 C15.51 0 31.02 0 47 0 C47 1.98 47 3.96 47 6 C54.59 6 62.18 6 70 6 C70 7.98 70 9.96 70 12 C73.96 12 77.92 12 82 12 C82 13.65 82 15.3 82 17 C83.98 17 85.96 17 88 17 C88 18.98 88 20.96 88 23 C91.63 23 95.26 23 99 23 C99 24.98 99 26.96 99 29 C100.98 29 102.96 29 105 29 C105 30.98 105 32.96 105 35 C106.98 35 108.96 35 111 35 C111 36.65 111 38.3 111 40 C112.65 40 114.3 40 116 40 C116 41.98 116 43.96 116 46 C117.98 46 119.96 46 122 46 C122 47.98 122 49.96 122 52 C123.98 52 125.96 52 128 52 C128 55.63 128 59.26 128 63 C129.98 63 131.96 63 134 63 C134 64.98 134 66.96 134 69 C135.65 69 137.3 69 139 69 C139 72.96 139 76.92 139 81 C140.98 81 142.96 81 145 81 C145 88.59 145 96.18 145 104 C146.98 104 148.96 104 151 104 C151 119.51 151 135.02 151 151 C149.02 151 147.04 151 145 151 C145 158.59 145 166.18 145 174 C143.02 174 141.04 174 139 174 C139 177.96 139 181.92 139 186 C137.35 186 135.7 186 134 186 C134 187.98 134 189.96 134 192 C132.02 192 130.04 192 128 192 C128 195.63 128 199.26 128 203 C126.02 203 124.04 203 122 203 C122 204.98 122 206.96 122 209 C120.02 209 118.04 209 116 209 C116 210.98 116 212.96 116 215 C114.35 215 112.7 215 111 215 C111 216.65 111 218.3 111 220 C109.02 220 107.04 220 105 220 C105 221.98 105 223.96 105 226 C103.02 226 101.04 226 99 226 C99 227.98 99 229.96 99 232 C95.37 232 91.74 232 88 232 C88 233.98 88 235.96 88 238 C86.02 238 84.04 238 82 238 C82 239.65 82 241.3 82 243 C78.04 243 74.08 243 70 243 C70 244.98 70 246.96 70 249 C62.41 249 54.82 249 47 249 C47 250.98 47 252.96 47 255 C31.49 255 15.98 255 0 255 C0 253.02 0 251.04 0 249 C-7.59 249 -15.18 249 -23 249 C-23 247.02 -23 245.04 -23 243 C-26.96 243 -30.92 243 -35 243 C-35 241.35 -35 239.7 -35 238 C-36.98 238 -38.96 238 -41 238 C-41 236.02 -41 234.04 -41 232 C-44.63 232 -48.26 232 -52 232 C-52 230.02 -52 228.04 -52 226 C-53.98 226 -55.96 226 -58 226 C-58 224.02 -58 222.04 -58 220 C-59.98 220 -61.96 220 -64 220 C-64 218.35 -64 216.7 -64 215 C-65.65 215 -67.3 215 -69 215 C-69 213.02 -69 211.04 -69 209 C-70.98 209 -72.96 209 -75 209 C-75 207.02 -75 205.04 -75 203 C-76.98 203 -78.96 203 -81 203 C-81 199.37 -81 195.74 -81 192 C-82.98 192 -84.96 192 -87 192 C-87 190.02 -87 188.04 -87 186 C-88.65 186 -90.3 186 -92 186 C-92 182.04 -92 178.08 -92 174 C-93.98 174 -95.96 174 -98 174 C-98 166.41 -98 158.82 -98 151 C-99.98 151 -101.96 151 -104 151 C-104 135.49 -104 119.98 -104 104 C-102.02 104 -100.04 104 -98 104 C-98 96.41 -98 88.82 -98 81 C-96.02 81 -94.04 81 -92 81 C-92 77.04 -92 73.08 -92 69 C-90.35 69 -88.7 69 -87 69 C-87 67.02 -87 65.04 -87 63 C-85.02 63 -83.04 63 -81 63 C-81 59.37 -81 55.74 -81 52 C-79.02 52 -77.04 52 -75 52 C-75 50.02 -75 48.04 -75 46 C-73.02 46 -71.04 46 -69 46 C-69 44.02 -69 42.04 -69 40 C-67.35 40 -65.7 40 -64 40 C-64 38.35 -64 36.7 -64 35 C-62.02 35 -60.04 35 -58 35 C-58 33.02 -58 31.04 -58 29 C-56.02 29 -54.04 29 -52 29 C-52 27.02 -52 25.04 -52 23 C-48.37 23 -44.74 23 -41 23 C-41 21.02 -41 19.04 -41 17 C-39.02 17 -37.04 17 -35 17 C-35 15.35 -35 13.7 -35 12 C-31.04 12 -27.08 12 -23 12 C-23 10.02 -23 8.04 -23 6 C-15.41 6 -7.82 6 0 6 C0 4.02 0 2.04 0 0 Z M1 13 C0.67 16.3 0.34 19.6 0 23 C-11.385 23.495 -11.385 23.495 -23 24 C-23 25.98 -23 27.96 -23 30 C-32.24 30 -41.48 30 -51 30 C-51 31.98 -51 33.96 -51 36 C-52.98 36 -54.96 36 -57 36 C-57 37.65 -57 39.3 -57 41 C-58.98 41 -60.96 41 -63 41 C-63 42.98 -63 44.96 -63 47 C-64.65 47 -66.3 47 -68 47 C-68 48.98 -68 50.96 -68 53 C-69.98 53 -71.96 53 -74 53 C-74 62.24 -74 71.48 -74 81 C-75.98 81 -77.96 81 -80 81 C-80.33 88.59 -80.66 96.18 -81 104 C-85.95 104.495 -85.95 104.495 -91 105 C-91 119.85 -91 134.7 -91 150 C-89.35 150 -87.7 150 -86 150 C-86 161.55 -86 173.1 -86 185 C-84.02 185 -82.04 185 -80 185 C-80 186.98 -80 188.96 -80 191 C-78.02 191 -76.04 191 -74 191 C-74 194.63 -74 198.26 -74 202 C-72.02 202 -70.04 202 -68 202 C-68 203.98 -68 205.96 -68 208 C-66.35 208 -64.7 208 -63 208 C-63 209.98 -63 211.96 -63 214 C-61.02 214 -59.04 214 -57 214 C-57 215.65 -57 217.3 -57 219 C-55.02 219 -53.04 219 -51 219 C-51 220.98 -51 222.96 -51 225 C-47.37 225 -43.74 225 -40 225 C-40 226.98 -40 228.96 -40 231 C-26.47 231 -12.94 231 1 231 C1 234.63 1 238.26 1 242 C15.85 242 30.7 242 46 242 C46 240.35 46 238.7 46 237 C57.55 237 69.1 237 81 237 C81 235.02 81 233.04 81 231 C82.98 231 84.96 231 87 231 C87 229.02 87 227.04 87 225 C90.63 225 94.26 225 98 225 C98 223.02 98 221.04 98 219 C99.98 219 101.96 219 104 219 C104 217.35 104 215.7 104 214 C105.98 214 107.96 214 110 214 C110 212.02 110 210.04 110 208 C111.65 208 113.3 208 115 208 C115 206.02 115 204.04 115 202 C116.98 202 118.96 202 121 202 C121 198.37 121 194.74 121 191 C122.98 191 124.96 191 127 191 C127 189.02 127 187.04 127 185 C128.98 185 130.96 185 133 185 C133 173.45 133 161.9 133 150 C134.65 150 136.3 150 138 150 C138 135.15 138 120.3 138 105 C134.37 105 130.74 105 127 105 C127 91.47 127 77.94 127 64 C125.02 64 123.04 64 121 64 C121 60.37 121 56.74 121 53 C119.02 53 117.04 53 115 53 C115 51.02 115 49.04 115 47 C113.35 47 111.7 47 110 47 C110 45.02 110 43.04 110 41 C108.02 41 106.04 41 104 41 C104 39.35 104 37.7 104 36 C102.02 36 100.04 36 98 36 C98 34.02 98 32.04 98 30 C94.37 30 90.74 30 87 30 C87 28.02 87 26.04 87 24 C85.02 24 83.04 24 81 24 C81 22.02 81 20.04 81 18 C69.45 18 57.9 18 46 18 C46 16.35 46 14.7 46 13 C31.15 13 16.3 13 1 13 Z " fill="#5EA42D" transform="translate(105,1)"/>
<path d="M0 0 C15.51 0 31.02 0 47 0 C47 1.98 47 3.96 47 6 C54.59 6 62.18 6 70 6 C70 9.96 70 13.92 70 18 C62.08 18 54.16 18 46 18 C46 16.35 46 14.7 46 13 C31.15 13 16.3 13 1 13 C1 16.3 1 19.6 1 23 C0 24 0 24 -2.22485352 24.11352539 C-3.18319092 24.10828857 -4.14152832 24.10305176 -5.12890625 24.09765625 C-6.68061523 24.09282227 -6.68061523 24.09282227 -8.26367188 24.08789062 C-9.35228516 24.07951172 -10.44089844 24.07113281 -11.5625 24.0625 C-13.2012207 24.05573242 -13.2012207 24.05573242 -14.87304688 24.04882812 C-17.58208495 24.03699826 -20.29101599 24.02051543 -23 24 C-23 25.98 -23 27.96 -23 30 C-32.24 30 -41.48 30 -51 30 C-51 31.98 -51 33.96 -51 36 C-52.98 36 -54.96 36 -57 36 C-57 37.65 -57 39.3 -57 41 C-58.98 41 -60.96 41 -63 41 C-63 42.98 -63 44.96 -63 47 C-64.65 47 -66.3 47 -68 47 C-68 48.98 -68 50.96 -68 53 C-69.98 53 -71.96 53 -74 53 C-74 62.24 -74 71.48 -74 81 C-75.98 81 -77.96 81 -80 81 C-79.99214478 82.0372522 -79.99214478 82.0372522 -79.98413086 83.09545898 C-79.963425 86.20946352 -79.95036037 89.32345361 -79.9375 92.4375 C-79.92912109 93.52611328 -79.92074219 94.61472656 -79.91210938 95.73632812 C-79.90727539 97.28803711 -79.90727539 97.28803711 -79.90234375 98.87109375 C-79.89448853 100.30859985 -79.89448853 100.30859985 -79.88647461 101.77514648 C-80 104 -80 104 -81 105 C-84.3 105 -87.6 105 -91 105 C-91 119.85 -91 134.7 -91 150 C-89.35 150 -87.7 150 -86 150 C-86 157.92 -86 165.84 -86 174 C-89.96 174 -93.92 174 -98 174 C-98 166.41 -98 158.82 -98 151 C-99.98 151 -101.96 151 -104 151 C-104 135.49 -104 119.98 -104 104 C-102.02 104 -100.04 104 -98 104 C-98 96.41 -98 88.82 -98 81 C-96.02 81 -94.04 81 -92 81 C-92 77.04 -92 73.08 -92 69 C-90.35 69 -88.7 69 -87 69 C-87 67.02 -87 65.04 -87 63 C-85.02 63 -83.04 63 -81 63 C-81 59.37 -81 55.74 -81 52 C-79.02 52 -77.04 52 -75 52 C-75 50.02 -75 48.04 -75 46 C-73.02 46 -71.04 46 -69 46 C-69 44.02 -69 42.04 -69 40 C-67.35 40 -65.7 40 -64 40 C-64 38.35 -64 36.7 -64 35 C-62.02 35 -60.04 35 -58 35 C-58 33.02 -58 31.04 -58 29 C-56.02 29 -54.04 29 -52 29 C-52 27.02 -52 25.04 -52 23 C-48.37 23 -44.74 23 -41 23 C-41 21.02 -41 19.04 -41 17 C-39.02 17 -37.04 17 -35 17 C-35 15.35 -35 13.7 -35 12 C-31.04 12 -27.08 12 -23 12 C-23 10.02 -23 8.04 -23 6 C-15.41 6 -7.82 6 0 6 C0 4.02 0 2.04 0 0 Z " fill="#5EA42D" transform="translate(105,1)"/>
<path d="M0 0 C1.98 0 3.96 0 6 0 C6 3.63 6 7.26 6 11 C7.98 11 9.96 11 12 11 C12 12.98 12 14.96 12 17 C13.98 17 15.96 17 18 17 C18 20.63 18 24.26 18 28 C19.98 28 21.96 28 24 28 C24 29.98 24 31.96 24 34 C25.65 34 27.3 34 29 34 C29 35.98 29 37.96 29 40 C30.98 40 32.96 40 35 40 C35 41.65 35 43.3 35 45 C36.98 45 38.96 45 41 45 C41 46.98 41 48.96 41 51 C44.63 51 48.26 51 52 51 C52 52.98 52 54.96 52 57 C65.53 57 79.06 57 93 57 C93 60.63 93 64.26 93 68 C107.85 68 122.7 68 138 68 C138 66.35 138 64.7 138 63 C145.92 63 153.84 63 162 63 C162 66.96 162 70.92 162 75 C154.41 75 146.82 75 139 75 C139 76.98 139 78.96 139 81 C123.49 81 107.98 81 92 81 C92 79.02 92 77.04 92 75 C84.41 75 76.82 75 69 75 C69 73.02 69 71.04 69 69 C65.04 69 61.08 69 57 69 C57 67.35 57 65.7 57 64 C55.02 64 53.04 64 51 64 C51 62.02 51 60.04 51 58 C47.37 58 43.74 58 40 58 C40 56.02 40 54.04 40 52 C38.02 52 36.04 52 34 52 C34 50.02 34 48.04 34 46 C32.02 46 30.04 46 28 46 C28 44.35 28 42.7 28 41 C26.35 41 24.7 41 23 41 C23 39.02 23 37.04 23 35 C21.02 35 19.04 35 17 35 C17 33.02 17 31.04 17 29 C15.02 29 13.04 29 11 29 C11 25.37 11 21.74 11 18 C9.02 18 7.04 18 5 18 C5 16.02 5 14.04 5 12 C3.35 12 1.7 12 0 12 C0 8.04 0 4.08 0 0 Z " fill="#5EA42D" transform="translate(13,175)"/>
<path d="M0 0 C22.77 0 45.54 0 69 0 C69 1.98 69 3.96 69 6 C70.98 6 72.96 6 75 6 C75 7.65 75 9.3 75 11 C76.65 11 78.3 11 80 11 C80 12.98 80 14.96 80 17 C81.98 17 83.96 17 86 17 C86 18.98 86 20.96 86 23 C87.98 23 89.96 23 92 23 C92 28.61 92 34.22 92 40 C93.98 40 95.96 40 98 40 C98 41.98 98 43.96 98 46 C107.24 46 116.48 46 126 46 C126 47.65 126 49.3 126 51 C114.78 51.33 103.56 51.66 92 52 C92 50.02 92 48.04 92 46 C90.02 46 88.04 46 86 46 C86 44.02 86 42.04 86 40 C84.35 40 82.7 40 81 40 C81 34.39 81 28.78 81 23 C79.02 23 77.04 23 75 23 C75 21.02 75 19.04 75 17 C71.04 17 67.08 17 63 17 C63 15.02 63 13.04 63 11 C61.02 11 59.04 11 57 11 C57 9.35 57 7.7 57 6 C42.15 6 27.3 6 12 6 C12 7.65 12 9.3 12 11 C8.04 11 4.08 11 0 11 C0 12.98 0 14.96 0 17 C-1.98 17 -3.96 17 -6 17 C-6 18.98 -6 20.96 -6 23 C-7.98 23 -9.96 23 -12 23 C-12 28.61 -12 34.22 -12 40 C-15.3 40 -18.6 40 -22 40 C-22 34.39 -22 28.78 -22 23 C-20.35 23 -18.7 23 -17 23 C-17 21.02 -17 19.04 -17 17 C-15.35 17 -13.7 17 -12 17 C-12 15.02 -12 13.04 -12 11 C-10.02 11 -8.04 11 -6 11 C-6 9.02 -6 7.04 -6 5 C-4.02 5 -2.04 5 0 5 C0 3.35 0 1.7 0 0 Z " fill="#A2CC20" transform="translate(94,77)"/>
<path d="M0 0 C1.98 0 3.96 0 6 0 C6 5.61 6 11.22 6 17 C4.02 17 2.04 17 0 17 C0.00785522 18.0372522 0.00785522 18.0372522 0.01586914 19.09545898 C0.036575 22.20946352 0.04963963 25.32345361 0.0625 28.4375 C0.07087891 29.52611328 0.07925781 30.61472656 0.08789062 31.73632812 C0.09272461 33.28803711 0.09272461 33.28803711 0.09765625 34.87109375 C0.10551147 36.30859985 0.10551147 36.30859985 0.11352539 37.77514648 C0 40 0 40 -1 41 C-4.3 41 -7.6 41 -11 41 C-11 55.85 -11 70.7 -11 86 C-9.35 86 -7.7 86 -6 86 C-6 93.92 -6 101.84 -6 110 C-9.96 110 -13.92 110 -18 110 C-18 102.41 -18 94.82 -18 87 C-19.98 87 -21.96 87 -24 87 C-24 71.49 -24 55.98 -24 40 C-22.02 40 -20.04 40 -18 40 C-18 32.41 -18 24.82 -18 17 C-14.04 17 -10.08 17 -6 17 C-6 13.37 -6 9.74 -6 6 C-4.02 6 -2.04 6 0 6 C0 4.02 0 2.04 0 0 Z " fill="#5EA42D" transform="translate(25,65)"/>
<path d="M0 0 C2.31 0 4.62 0 7 0 C7 1.65 7 3.3 7 5 C10.3 5.33 13.6 5.66 17 6 C18.25168929 11.3911342 18.06648892 16.48141974 18 22 C21.63 22 25.26 22 29 22 C29 23.98 29 25.96 29 28 C29.78246094 27.98839844 30.56492187 27.97679687 31.37109375 27.96484375 C32.38300781 27.95582031 33.39492187 27.94679687 34.4375 27.9375 C35.44683594 27.92589844 36.45617187 27.91429687 37.49609375 27.90234375 C40 28 40 28 41 29 C41 30.65 41 32.3 41 34 C55.85 34 70.7 34 86 34 C86 32.35 86 30.7 86 29 C87 28 87 28 89.50390625 27.90234375 C90.51324219 27.91394531 91.52257812 27.92554688 92.5625 27.9375 C93.57441406 27.94652344 94.58632812 27.95554688 95.62890625 27.96484375 C96.41136719 27.97644531 97.19382812 27.98804688 98 28 C98 26.02 98 24.04 98 22 C101.63 22 105.26 22 109 22 C109 20.35 109 18.7 109 17 C110.98 17 112.96 17 115 17 C115 15.02 115 13.04 115 11 C116.98 11 118.96 11 121 11 C121 14.96 121 18.92 121 23 C117.37 23 113.74 23 110 23 C110 24.98 110 26.96 110 29 C106.04 29 102.08 29 98 29 C98 30.98 98 32.96 98 35 C94.37 35 90.74 35 87 35 C87 36.65 87 38.3 87 40 C71.49 40 55.98 40 40 40 C40 38.35 40 36.7 40 35 C36.37 35 32.74 35 29 35 C29 33.02 29 31.04 29 29 C25.04 29 21.08 29 17 29 C17 27.02 17 25.04 17 23 C13.37 23 9.74 23 6 23 C6 19.04 6 15.08 6 11 C4.02 11 2.04 11 0 11 C0 7.37 0 3.74 0 0 Z " fill="#425E07" transform="translate(65,146)"/>
<path d="M0 0 C23.1 0 46.2 0 70 0 C70 1.65 70 3.3 70 5 C74.95 5.495 74.95 5.495 80 6 C80.495 11.445 80.495 11.445 81 17 C82.98 17 84.96 17 87 17 C87 18.98 87 20.96 87 23 C88.98 23 90.96 23 93 23 C93 24.65 93 26.3 93 28 C94.65 28 96.3 28 98 28 C98 33.94 98 39.88 98 46 C96.02 46 94.04 46 92 46 C92 40.39 92 34.78 92 29 C90.02 29 88.04 29 86 29 C86 27.02 86 25.04 86 23 C84.02 23 82.04 23 80 23 C80 21.02 80 19.04 80 17 C78.35 17 76.7 17 75 17 C75 15.35 75 13.7 75 12 C73.02 12 71.04 12 69 12 C69 10.02 69 8.04 69 6 C46.23 6 23.46 6 0 6 C0 7.65 0 9.3 0 11 C-1.98 11 -3.96 11 -6 11 C-6 9.02 -6 7.04 -6 5 C-4.02 5 -2.04 5 0 5 C0 3.35 0 1.7 0 0 Z " fill="#3D5211" transform="translate(94,71)"/>
<path d="M0 0 C7.92 0 15.84 0 24 0 C24 1.65 24 3.3 24 5 C38.85 5 53.7 5 69 5 C69 3.35 69 1.7 69 0 C76.92 0 84.84 0 93 0 C93 1.98 93 3.96 93 6 C85.41 6 77.82 6 70 6 C70 7.98 70 9.96 70 12 C54.49 12 38.98 12 23 12 C23 10.02 23 8.04 23 6 C15.41 6 7.82 6 0 6 C0 4.02 0 2.04 0 0 Z " fill="#0A0E06" transform="translate(82,244)"/>
<path d="M0 0 C1.98 0 3.96 0 6 0 C6 7.59 6 15.18 6 23 C7.98 23 9.96 23 12 23 C12 38.51 12 54.02 12 70 C10.02 70 8.04 70 6 70 C6 77.59 6 85.18 6 93 C4.02 93 2.04 93 0 93 C0 85.08 0 77.16 0 69 C1.65 69 3.3 69 5 69 C5 54.15 5 39.3 5 24 C3.35 24 1.7 24 0 24 C0 16.08 0 8.16 0 0 Z " fill="#0A0E06" transform="translate(244,82)"/>
<path d="M0 0 C1.98 0 3.96 0 6 0 C6 7.92 6 15.84 6 24 C4.35 24 2.7 24 1 24 C1 38.85 1 53.7 1 69 C2.65 69 4.3 69 6 69 C6 76.92 6 84.84 6 93 C4.02 93 2.04 93 0 93 C0 85.41 0 77.82 0 70 C-1.98 70 -3.96 70 -6 70 C-6 54.49 -6 38.98 -6 23 C-4.02 23 -2.04 23 0 23 C0 15.41 0 7.82 0 0 Z " fill="#040502" transform="translate(7,82)"/>
<path d="M0 0 C15.51 0 31.02 0 47 0 C47 1.98 47 3.96 47 6 C54.59 6 62.18 6 70 6 C70 7.98 70 9.96 70 12 C62.08 12 54.16 12 46 12 C46 10.35 46 8.7 46 7 C31.15 7 16.3 7 1 7 C1 8.65 1 10.3 1 12 C-6.92 12 -14.84 12 -23 12 C-23 10.02 -23 8.04 -23 6 C-15.41 6 -7.82 6 0 6 C0 4.02 0 2.04 0 0 Z " fill="#030402" transform="translate(105,1)"/>
<path d="M0 0 C1.98 0 3.96 0 6 0 C6 3.63 6 7.26 6 11 C7.98 11 9.96 11 12 11 C12 12.98 12 14.96 12 17 C13.98 17 15.96 17 18 17 C18 20.63 18 24.26 18 28 C19.98 28 21.96 28 24 28 C24 29.98 24 31.96 24 34 C25.65 34 27.3 34 29 34 C29 35.98 29 37.96 29 40 C30.98 40 32.96 40 35 40 C35 41.65 35 43.3 35 45 C36.98 45 38.96 45 41 45 C41 46.98 41 48.96 41 51 C44.63 51 48.26 51 52 51 C52 52.98 52 54.96 52 57 C53.98 57 55.96 57 58 57 C58 58.98 58 60.96 58 63 C61.63 63 65.26 63 69 63 C69 64.98 69 66.96 69 69 C65.04 69 61.08 69 57 69 C57 67.35 57 65.7 57 64 C55.02 64 53.04 64 51 64 C51 62.02 51 60.04 51 58 C47.37 58 43.74 58 40 58 C40 56.02 40 54.04 40 52 C38.02 52 36.04 52 34 52 C34 50.02 34 48.04 34 46 C32.02 46 30.04 46 28 46 C28 44.35 28 42.7 28 41 C26.35 41 24.7 41 23 41 C23 39.02 23 37.04 23 35 C21.02 35 19.04 35 17 35 C17 33.02 17 31.04 17 29 C15.02 29 13.04 29 11 29 C11 25.37 11 21.74 11 18 C9.02 18 7.04 18 5 18 C5 16.02 5 14.04 5 12 C3.35 12 1.7 12 0 12 C0 8.04 0 4.08 0 0 Z " fill="#070904" transform="translate(13,175)"/>
<path d="M0 0 C1.98 0 3.96 0 6 0 C6 3.96 6 7.92 6 12 C4.35 12 2.7 12 1 12 C1 13.98 1 15.96 1 18 C-0.98 18 -2.96 18 -5 18 C-5 21.63 -5 25.26 -5 29 C-6.98 29 -8.96 29 -11 29 C-11 30.98 -11 32.96 -11 35 C-12.98 35 -14.96 35 -17 35 C-17 36.98 -17 38.96 -17 41 C-18.65 41 -20.3 41 -22 41 C-22 42.65 -22 44.3 -22 46 C-23.98 46 -25.96 46 -28 46 C-28 47.98 -28 49.96 -28 52 C-29.98 52 -31.96 52 -34 52 C-34 53.98 -34 55.96 -34 58 C-37.63 58 -41.26 58 -45 58 C-45 59.98 -45 61.96 -45 64 C-46.98 64 -48.96 64 -51 64 C-51 65.65 -51 67.3 -51 69 C-54.96 69 -58.92 69 -63 69 C-63 67.02 -63 65.04 -63 63 C-59.37 63 -55.74 63 -52 63 C-52 61.02 -52 59.04 -52 57 C-50.02 57 -48.04 57 -46 57 C-46 55.02 -46 53.04 -46 51 C-42.37 51 -38.74 51 -35 51 C-35 49.02 -35 47.04 -35 45 C-33.02 45 -31.04 45 -29 45 C-29 43.35 -29 41.7 -29 40 C-27.02 40 -25.04 40 -23 40 C-23 38.02 -23 36.04 -23 34 C-21.35 34 -19.7 34 -18 34 C-18 32.02 -18 30.04 -18 28 C-16.02 28 -14.04 28 -12 28 C-12 24.37 -12 20.74 -12 17 C-10.02 17 -8.04 17 -6 17 C-6 15.02 -6 13.04 -6 11 C-4.02 11 -2.04 11 0 11 C0 7.37 0 3.74 0 0 Z " fill="#070B04" transform="translate(238,175)"/>
<path d="M0 0 C3.96 0 7.92 0 12 0 C12 1.98 12 3.96 12 6 C8.37 6 4.74 6 1 6 C1 7.98 1 9.96 1 12 C-0.98 12 -2.96 12 -5 12 C-5 13.98 -5 15.96 -5 18 C-8.63 18 -12.26 18 -16 18 C-16 19.98 -16 21.96 -16 24 C-17.98 24 -19.96 24 -22 24 C-22 25.65 -22 27.3 -22 29 C-23.98 29 -25.96 29 -28 29 C-28 30.98 -28 32.96 -28 35 C-29.65 35 -31.3 35 -33 35 C-33 36.98 -33 38.96 -33 41 C-34.98 41 -36.96 41 -39 41 C-39 44.63 -39 48.26 -39 52 C-40.98 52 -42.96 52 -45 52 C-45 53.98 -45 55.96 -45 58 C-46.98 58 -48.96 58 -51 58 C-51 61.63 -51 65.26 -51 69 C-52.98 69 -54.96 69 -57 69 C-57 65.04 -57 61.08 -57 57 C-55.35 57 -53.7 57 -52 57 C-52 55.02 -52 53.04 -52 51 C-50.02 51 -48.04 51 -46 51 C-46 47.37 -46 43.74 -46 40 C-44.02 40 -42.04 40 -40 40 C-40 38.02 -40 36.04 -40 34 C-38.02 34 -36.04 34 -34 34 C-34 32.02 -34 30.04 -34 28 C-32.35 28 -30.7 28 -29 28 C-29 26.35 -29 24.7 -29 23 C-27.02 23 -25.04 23 -23 23 C-23 21.02 -23 19.04 -23 17 C-21.02 17 -19.04 17 -17 17 C-17 15.02 -17 13.04 -17 11 C-13.37 11 -9.74 11 -6 11 C-6 9.02 -6 7.04 -6 5 C-4.02 5 -2.04 5 0 5 C0 3.35 0 1.7 0 0 Z " fill="#080B05" transform="translate(70,13)"/>
<path d="M0 0 C3.96 0 7.92 0 12 0 C12 1.65 12 3.3 12 5 C13.98 5 15.96 5 18 5 C18 6.98 18 8.96 18 11 C21.63 11 25.26 11 29 11 C29 12.98 29 14.96 29 17 C30.98 17 32.96 17 35 17 C35 18.98 35 20.96 35 23 C36.98 23 38.96 23 41 23 C41 24.65 41 26.3 41 28 C42.65 28 44.3 28 46 28 C46 29.98 46 31.96 46 34 C47.98 34 49.96 34 52 34 C52 35.98 52 37.96 52 40 C53.98 40 55.96 40 58 40 C58 43.63 58 47.26 58 51 C59.98 51 61.96 51 64 51 C64 52.98 64 54.96 64 57 C65.65 57 67.3 57 69 57 C69 60.96 69 64.92 69 69 C67.02 69 65.04 69 63 69 C63 65.37 63 61.74 63 58 C61.02 58 59.04 58 57 58 C57 56.02 57 54.04 57 52 C55.02 52 53.04 52 51 52 C51 48.37 51 44.74 51 41 C49.02 41 47.04 41 45 41 C45 39.02 45 37.04 45 35 C43.35 35 41.7 35 40 35 C40 33.02 40 31.04 40 29 C38.02 29 36.04 29 34 29 C34 27.35 34 25.7 34 24 C32.02 24 30.04 24 28 24 C28 22.02 28 20.04 28 18 C24.37 18 20.74 18 17 18 C17 16.02 17 14.04 17 12 C15.02 12 13.04 12 11 12 C11 10.02 11 8.04 11 6 C7.37 6 3.74 6 0 6 C0 4.02 0 2.04 0 0 Z " fill="#070904" transform="translate(175,13)"/>
<path d="M0 0 C1.22244667 0.00333092 1.22244667 0.00333092 2.46958923 0.00672913 C3.39046829 0.00680466 4.31134735 0.00688019 5.26013184 0.00695801 C6.2611644 0.01211929 7.26219696 0.01728058 8.29356384 0.02259827 C9.31316696 0.02401321 10.33277008 0.02542816 11.38327026 0.02688599 C14.65417867 0.03250355 17.92501972 0.04505902 21.19590759 0.05775452 C23.40749515 0.06276725 25.61908377 0.06733055 27.83067322 0.07142639 C33.26494116 0.08247868 38.69916957 0.09923389 44.13340759 0.12025452 C44.13340759 2.43025452 44.13340759 4.74025452 44.13340759 7.12025452 C42.15340759 7.12025452 40.17340759 7.12025452 38.13340759 7.12025452 C38.13340759 8.77025452 38.13340759 10.42025452 38.13340759 12.12025452 C26.58340759 12.12025452 15.03340759 12.12025452 3.13340759 12.12025452 C3.13340759 10.47025452 3.13340759 8.82025452 3.13340759 7.12025452 C1.15340759 7.12025452 -0.82659241 7.12025452 -2.86659241 7.12025452 C-2.90913597 5.12070706 -2.90740024 3.11983815 -2.86659241 1.12025452 C-1.86659241 0.12025452 -1.86659241 0.12025452 0 0 Z " fill="#6E9000" transform="translate(107.86659240722656,150.87974548339844)"/>
<path d="M0 0 C5.61 0 11.22 0 17 0 C17 1.65 17 3.3 17 5 C28.55 5 40.1 5 52 5 C52 3.35 52 1.7 52 0 C57.61 0 63.22 0 69 0 C69 1.65 69 3.3 69 5 C65.37 5.33 61.74 5.66 58 6 C57.67 7.65 57.34 9.3 57 11 C42.15 11 27.3 11 12 11 C11.67 9.35 11.34 7.7 11 6 C7.37 5.67 3.74 5.34 0 5 C0 3.35 0 1.7 0 0 Z " fill="#82AB00" transform="translate(94,169)"/>
<path d="M0 0 C9.57 0 19.14 0 29 0 C29 1.98 29 3.96 29 6 C19.76 6 10.52 6 1 6 C1 9.63 1 13.26 1 17 C4.63 17 8.26 17 12 17 C12 18.98 12 20.96 12 23 C17.61 23 23.22 23 29 23 C29 24.98 29 26.96 29 29 C23.06 29 17.12 29 11 29 C11 27.35 11 25.7 11 24 C7.37 24 3.74 24 0 24 C0 22.02 0 20.04 0 18 C-1.65 18 -3.3 18 -5 18 C-5 14.04 -5 10.08 -5 6 C-3.35 6 -1.7 6 0 6 C0 4.02 0 2.04 0 0 Z " fill="#3F5D18" transform="translate(36,117)"/>
<path d="M0 0 C3.63 0 7.26 0 11 0 C11 3.63 11 7.26 11 11 C9.02 11 7.04 11 5 11 C5 12.98 5 14.96 5 17 C3.35 17 1.7 17 0 17 C0 18.98 0 20.96 0 23 C-1.98 23 -3.96 23 -6 23 C-6 24.65 -6 26.3 -6 28 C-7.98 28 -9.96 28 -12 28 C-12 29.98 -12 31.96 -12 34 C-15.63 34 -19.26 34 -23 34 C-23 30.37 -23 26.74 -23 23 C-19.37 23 -15.74 23 -12 23 C-12 21.02 -12 19.04 -12 17 C-10.02 17 -8.04 17 -6 17 C-6 15.02 -6 13.04 -6 11 C-4.02 11 -2.04 11 0 11 C0 7.37 0 3.74 0 0 Z " fill="#5FA72D" transform="translate(215,192)"/>
<path d="M0 0 C3.63 0 7.26 0 11 0 C11 3.63 11 7.26 11 11 C12.98 11 14.96 11 17 11 C17 12.98 17 14.96 17 17 C18.98 17 20.96 17 23 17 C23 18.98 23 20.96 23 23 C26.63 23 30.26 23 34 23 C34 26.63 34 30.26 34 34 C30.37 34 26.74 34 23 34 C23 32.02 23 30.04 23 28 C21.02 28 19.04 28 17 28 C17 26.35 17 24.7 17 23 C15.02 23 13.04 23 11 23 C11 21.02 11 19.04 11 17 C9.35 17 7.7 17 6 17 C6 15.02 6 13.04 6 11 C4.02 11 2.04 11 0 11 C0 7.37 0 3.74 0 0 Z " fill="#5FA72D" transform="translate(31,192)"/>
<path d="M0 0 C3.63 0 7.26 0 11 0 C11 1.98 11 3.96 11 6 C12.98 6 14.96 6 17 6 C17 7.65 17 9.3 17 11 C18.98 11 20.96 11 23 11 C23 12.98 23 14.96 23 17 C24.65 17 26.3 17 28 17 C28 18.98 28 20.96 28 23 C29.98 23 31.96 23 34 23 C34 26.63 34 30.26 34 34 C30.37 34 26.74 34 23 34 C23 30.37 23 26.74 23 23 C21.02 23 19.04 23 17 23 C17 21.02 17 19.04 17 17 C15.02 17 13.04 17 11 17 C11 15.02 11 13.04 11 11 C7.37 11 3.74 11 0 11 C0 7.37 0 3.74 0 0 Z " fill="#5FA72D" transform="translate(192,31)"/>
<path d="M0 0 C3.63 0 7.26 0 11 0 C11 3.63 11 7.26 11 11 C7.37 11 3.74 11 0 11 C0 12.98 0 14.96 0 17 C-1.98 17 -3.96 17 -6 17 C-6 18.98 -6 20.96 -6 23 C-7.98 23 -9.96 23 -12 23 C-12 26.63 -12 30.26 -12 34 C-15.63 34 -19.26 34 -23 34 C-23 30.37 -23 26.74 -23 23 C-21.02 23 -19.04 23 -17 23 C-17 21.02 -17 19.04 -17 17 C-15.35 17 -13.7 17 -12 17 C-12 15.02 -12 13.04 -12 11 C-10.02 11 -8.04 11 -6 11 C-6 9.35 -6 7.7 -6 6 C-4.02 6 -2.04 6 0 6 C0 4.02 0 2.04 0 0 Z " fill="#5FA82D" transform="translate(54,31)"/>
<path d="M0 0 C9.57 0 19.14 0 29 0 C29 1.98 29 3.96 29 6 C30.65 6 32.3 6 34 6 C34 9.63 34 13.26 34 17 C32.35 17 30.7 17 29 17 C29 18.98 29 20.96 29 23 C25.04 23 21.08 23 17 23 C17 19.37 17 15.74 17 12 C20.63 12 24.26 12 28 12 C28 10.02 28 8.04 28 6 C18.76 6 9.52 6 0 6 C0 4.02 0 2.04 0 0 Z " fill="#799D03" transform="translate(192,117)"/>
<path d="M0 0 C22.77 0 45.54 0 69 0 C69 1.65 69 3.3 69 5 C46.23 5 23.46 5 0 5 C0 3.35 0 1.7 0 0 Z " fill="#020401" transform="translate(94,71)"/>
<path d="M0 0 C5.61 0 11.22 0 17 0 C17 3.96 17 7.92 17 12 C13.37 12 9.74 12 6 12 C6 13.65 6 15.3 6 17 C2.04 17 -1.92 17 -6 17 C-6 13.37 -6 9.74 -6 6 C-4.02 6 -2.04 6 0 6 C0 4.02 0 2.04 0 0 Z " fill="#5FAA2C" transform="translate(192,140)"/>
<path d="M0 0 C15.51 0 31.02 0 47 0 C47 1.98 47 3.96 47 6 C31.49 6 15.98 6 0 6 C0 4.02 0 2.04 0 0 Z " fill="#000000" transform="translate(105,250)"/>
<path d="M0 0 C1.98 0 3.96 0 6 0 C6 15.51 6 31.02 6 47 C4.02 47 2.04 47 0 47 C0 31.49 0 15.98 0 0 Z " fill="#000000" transform="translate(250,105)"/>
<path d="M0 0 C15.51 0 31.02 0 47 0 C46.67 1.98 46.34 3.96 46 6 C31.15 6 16.3 6 1 6 C0.67 4.02 0.34 2.04 0 0 Z " fill="#5DA62B" transform="translate(105,186)"/>
<path d="M0 0 C9.24 0 18.48 0 28 0 C28 3.96 28 7.92 28 12 C22.39 12 16.78 12 11 12 C11 10.02 11 8.04 11 6 C7.37 6 3.74 6 0 6 C0 4.02 0 2.04 0 0 Z " fill="#7BA202" transform="translate(37,128)"/>
<path d="M0 0 C1.65 0 3.3 0 5 0 C5 3.63 5 7.26 5 11 C3.02 11 1.04 11 -1 11 C-1 16.61 -1 22.22 -1 28 C-4.3 28 -7.6 28 -11 28 C-11 22.39 -11 16.78 -11 11 C-9.35 11 -7.7 11 -6 11 C-6 9.02 -6 7.04 -6 5 C-4.02 5 -2.04 5 0 5 C0 3.35 0 1.7 0 0 Z " fill="#A2CD1C" transform="translate(83,89)"/>
<path d="M0 0 C1.98 0 3.96 0 6 0 C6 5.61 6 11.22 6 17 C-1.59 17 -9.18 17 -17 17 C-17 15.35 -17 13.7 -17 12 C-15.02 12 -13.04 12 -11 12 C-11 10.02 -11 8.04 -11 6 C-7.37 6 -3.74 6 0 6 C0 4.02 0 2.04 0 0 Z " fill="#0D0700" transform="translate(157,111)"/>
<path d="M0 0 C1.98 0 3.96 0 6 0 C6 1.98 6 3.96 6 6 C9.63 6 13.26 6 17 6 C17 7.98 17 9.96 17 12 C18.98 12 20.96 12 23 12 C23 13.65 23 15.3 23 17 C15.41 17 7.82 17 0 17 C0 11.39 0 5.78 0 0 Z " fill="#0D0700" transform="translate(94,111)"/>
<path d="M0 0 C2.31 0 4.62 0 7 0 C7 1.65 7 3.3 7 5 C10.3 5.33 13.6 5.66 17 6 C17.33 9.63 17.66 13.26 18 17 C16.02 17 14.04 17 12 17 C12 18.98 12 20.96 12 23 C10.02 23 8.04 23 6 23 C6 19.04 6 15.08 6 11 C4.02 11 2.04 11 0 11 C0 7.37 0 3.74 0 0 Z " fill="#8BB500" transform="translate(65,146)"/>
<path d="M0 0 C14.85 0 29.7 0 45 0 C45 1.65 45 3.3 45 5 C30.15 5 15.3 5 0 5 C0 3.35 0 1.7 0 0 Z " fill="#4B692F" transform="translate(106,244)"/>
<path d="M0 0 C14.85 0 29.7 0 45 0 C45 1.65 45 3.3 45 5 C30.15 5 15.3 5 0 5 C0 3.35 0 1.7 0 0 Z " fill="#60AB2D" transform="translate(106,238)"/>
<path d="M0 0 C14.85 0 29.7 0 45 0 C45 1.65 45 3.3 45 5 C30.15 5 15.3 5 0 5 C0 3.35 0 1.7 0 0 Z " fill="#010300" transform="translate(106,181)"/>
<path d="M0 0 C14.85 0 29.7 0 45 0 C45 1.65 45 3.3 45 5 C30.15 5 15.3 5 0 5 C0 3.35 0 1.7 0 0 Z " fill="#000000" transform="translate(106,152)"/>
<path d="M0 0 C1.65 0 3.3 0 5 0 C5 14.85 5 29.7 5 45 C3.35 45 1.7 45 0 45 C0 30.15 0 15.3 0 0 Z " fill="#4B692F" transform="translate(244,106)"/>
<path d="M0 0 C1.65 0 3.3 0 5 0 C5 14.85 5 29.7 5 45 C3.35 45 1.7 45 0 45 C0 30.15 0 15.3 0 0 Z " fill="#60AB2D" transform="translate(238,106)"/>
<path d="M0 0 C1.65 0 3.3 0 5 0 C5 14.85 5 29.7 5 45 C3.35 45 1.7 45 0 45 C0 30.15 0 15.3 0 0 Z " fill="#60AB2D" transform="translate(14,106)"/>
<path d="M0 0 C1.65 0 3.3 0 5 0 C5 14.85 5 29.7 5 45 C3.35 45 1.7 45 0 45 C0 30.15 0 15.3 0 0 Z " fill="#4B692F" transform="translate(8,106)"/>
<path d="M0 0 C14.85 0 29.7 0 45 0 C45 1.65 45 3.3 45 5 C30.15 5 15.3 5 0 5 C0 3.35 0 1.7 0 0 Z " fill="#60AB2D" transform="translate(106,14)"/>
<path d="M0 0 C14.85 0 29.7 0 45 0 C45 1.65 45 3.3 45 5 C30.15 5 15.3 5 0 5 C0 3.35 0 1.7 0 0 Z " fill="#4B692F" transform="translate(106,8)"/>
<path d="M0 0 C9.24 0 18.48 0 28 0 C28 0.33 28 0.66 28 1 C24.37 1 20.74 1 17 1 C17 4.63 17 8.26 17 12 C11.39 12 5.78 12 0 12 C0 8.04 0 4.08 0 0 Z " fill="#7AA002" transform="translate(192,128)"/>
<path d="M0 0 C3.96 0 7.92 0 12 0 C12 1.98 12 3.96 12 6 C19.26 6 26.52 6 34 6 C34 7.98 34 9.96 34 12 C26.41 12 18.82 12 11 12 C11 10.02 11 8.04 11 6 C7.37 6 3.74 6 0 6 C0 4.02 0 2.04 0 0 Z " fill="#4B6A2F" transform="translate(71,232)"/>
<path d="M0 0 C1.98 0 3.96 0 6 0 C6 3.63 6 7.26 6 11 C7.98 11 9.96 11 12 11 C12 18.59 12 26.18 12 34 C10.02 34 8.04 34 6 34 C6 26.74 6 19.48 6 12 C4.02 12 2.04 12 0 12 C0 8.04 0 4.08 0 0 Z " fill="#4B6A2F" transform="translate(232,71)"/>
<path d="M0 0 C11.55 0 23.1 0 35 0 C35 1.65 35 3.3 35 5 C33.29507119 6.70492881 31.15465739 6.1280442 28.88098145 6.13894653 C28.16744507 6.1369223 27.45390869 6.13489807 26.71875 6.1328125 C25.99006714 6.13376923 25.26138428 6.13472595 24.51062012 6.13571167 C22.9672029 6.13639335 21.42378283 6.13453988 19.88037109 6.13037109 C17.510026 6.12502262 15.13987041 6.13031642 12.76953125 6.13671875 C11.27343708 6.13605797 9.77734303 6.1347768 8.28125 6.1328125 C7.21094543 6.13584885 7.21094543 6.13584885 6.11901855 6.13894653 C1.11495191 6.11495191 1.11495191 6.11495191 0 5 C0 3.35 0 1.7 0 0 Z " fill="#8FBA00" transform="translate(111,163)"/>
<path d="M0 0 C1.65 0 3.3 0 5 0 C5 3.3 5 6.6 5 10 C-6.22 10 -17.44 10 -29 10 C-29 8.35 -29 6.7 -29 5 C-19.43 5 -9.86 5 0 5 C0 3.35 0 1.7 0 0 Z " fill="#AECF41" transform="translate(66,118)"/>
<path d="M0 0 C1.98 0 3.96 0 6 0 C6 3.96 6 7.92 6 12 C4.35 12 2.7 12 1 12 C1 13.98 1 15.96 1 18 C-0.98 18 -2.96 18 -5 18 C-5 21.63 -5 25.26 -5 29 C-6.98 29 -8.96 29 -11 29 C-11 25.04 -11 21.08 -11 17 C-9.35 17 -7.7 17 -6 17 C-6 15.02 -6 13.04 -6 11 C-4.02 11 -2.04 11 0 11 C0 7.37 0 3.74 0 0 Z " fill="#010201" transform="translate(238,175)"/>
<path d="M0 0 C1.98 0 3.96 0 6 0 C6 3.63 6 7.26 6 11 C7.98 11 9.96 11 12 11 C12 12.98 12 14.96 12 17 C13.65 17 15.3 17 17 17 C17 20.96 17 24.92 17 29 C15.02 29 13.04 29 11 29 C11 25.37 11 21.74 11 18 C9.02 18 7.04 18 5 18 C5 16.02 5 14.04 5 12 C3.35 12 1.7 12 0 12 C0 8.04 0 4.08 0 0 Z " fill="#010201" transform="translate(13,175)"/>
<path d="M0 0 C3.96 0 7.92 0 12 0 C12 1.65 12 3.3 12 5 C13.98 5 15.96 5 18 5 C18 6.98 18 8.96 18 11 C21.63 11 25.26 11 29 11 C29 12.98 29 14.96 29 17 C25.04 17 21.08 17 17 17 C17 15.35 17 13.7 17 12 C15.02 12 13.04 12 11 12 C11 10.02 11 8.04 11 6 C7.37 6 3.74 6 0 6 C0 4.02 0 2.04 0 0 Z " fill="#010201" transform="translate(175,13)"/>
<path d="M0 0 C3.96 0 7.92 0 12 0 C12 1.98 12 3.96 12 6 C8.37 6 4.74 6 1 6 C1 7.98 1 9.96 1 12 C-0.98 12 -2.96 12 -5 12 C-5 13.65 -5 15.3 -5 17 C-8.96 17 -12.92 17 -17 17 C-17 15.02 -17 13.04 -17 11 C-13.37 11 -9.74 11 -6 11 C-6 9.02 -6 7.04 -6 5 C-4.02 5 -2.04 5 0 5 C0 3.35 0 1.7 0 0 Z " fill="#010201" transform="translate(70,13)"/>
<path d="M0 0 C1.98 0 3.96 0 6 0 C6 1.65 6 3.3 6 5 C9.63 5 13.26 5 17 5 C17 6.98 17 8.96 17 11 C20.63 11 24.26 11 28 11 C28 12.98 28 14.96 28 17 C24.37 17 20.74 17 17 17 C17 15.35 17 13.7 17 12 C13.04 12 9.08 12 5 12 C5 10.02 5 8.04 5 6 C3.35 6 1.7 6 0 6 C0 4.02 0 2.04 0 0 Z " fill="#425E07" transform="translate(77,163)"/>
<path d="M0 0 C1.98 0 3.96 0 6 0 C6 1.98 6 3.96 6 6 C7.98 6 9.96 6 12 6 C12 7.65 12 9.3 12 11 C13.65 11 15.3 11 17 11 C17 16.94 17 22.88 17 29 C15.02 29 13.04 29 11 29 C11 23.39 11 17.78 11 12 C9.02 12 7.04 12 5 12 C5 10.02 5 8.04 5 6 C3.35 6 1.7 6 0 6 C0 4.02 0 2.04 0 0 Z " fill="#2C4212" transform="translate(175,88)"/>
<path d="M0 0 C1.98 0 3.96 0 6 0 C6 1.98 6 3.96 6 6 C4.35 6 2.7 6 1 6 C1 7.98 1 9.96 1 12 C-0.98 12 -2.96 12 -5 12 C-5 17.61 -5 23.22 -5 29 C-6.98 29 -8.96 29 -11 29 C-11 23.06 -11 17.12 -11 11 C-9.35 11 -7.7 11 -6 11 C-6 9.35 -6 7.7 -6 6 C-4.02 6 -2.04 6 0 6 C0 4.02 0 2.04 0 0 Z " fill="#2C4212" transform="translate(76,88)"/>
<path d="M0 0 C9.57 0 19.14 0 29 0 C29 1.98 29 3.96 29 6 C19.43 6 9.86 6 0 6 C0 4.02 0 2.04 0 0 Z " fill="#0C1004" transform="translate(192,117)"/>
<path d="M0 0 C5.61 0 11.22 0 17 0 C17 1.98 17 3.96 17 6 C15.02 6 13.04 6 11 6 C11 7.98 11 9.96 11 12 C7.37 12 3.74 12 0 12 C0 8.04 0 4.08 0 0 Z " fill="#60AB2D" transform="translate(175,226)"/>
<path d="M0 0 C3.96 0 7.92 0 12 0 C12 3.63 12 7.26 12 11 C10.02 11 8.04 11 6 11 C6 12.98 6 14.96 6 17 C4.02 17 2.04 17 0 17 C0 11.39 0 5.78 0 0 Z " fill="#60AB2D" transform="translate(226,175)"/>
<path d="M0 0 C3.96 0 7.92 0 12 0 C12 5.61 12 11.22 12 17 C10.02 17 8.04 17 6 17 C6 15.02 6 13.04 6 11 C4.02 11 2.04 11 0 11 C0 7.37 0 3.74 0 0 Z " fill="#60AB2D" transform="translate(19,175)"/>
<path d="M0 0 C3.63 0 7.26 0 11 0 C11 1.98 11 3.96 11 6 C12.98 6 14.96 6 17 6 C17 7.98 17 9.96 17 12 C11.39 12 5.78 12 0 12 C0 8.04 0 4.08 0 0 Z " fill="#60AB2D" transform="translate(175,19)"/>
<path d="M0 0 C1.98 0 3.96 0 6 0 C6 3.63 6 7.26 6 11 C7.65 11 9.3 11 11 11 C11 12.65 11 14.3 11 16 C16.94 16 22.88 16 29 16 C29 16.33 29 16.66 29 17 C19.43 17 9.86 17 0 17 C0 11.39 0 5.78 0 0 Z " fill="#5EA72B" transform="translate(192,100)"/>
<path d="M0 0 C1.98 0 3.96 0 6 0 C6 5.61 6 11.22 6 17 C-3.57 17 -13.14 17 -23 17 C-23 16.67 -23 16.34 -23 16 C-17.06 16 -11.12 16 -5 16 C-5 14.35 -5 12.7 -5 11 C-3.35 11 -1.7 11 0 11 C0 7.37 0 3.74 0 0 Z " fill="#5EA72B" transform="translate(59,100)"/>
<path d="M0 0 C1.65 0 3.3 0 5 0 C6 1 6 1 6.11352539 3.22485352 C6.10828857 4.18319092 6.10305176 5.14152832 6.09765625 6.12890625 C6.09282227 7.68061523 6.09282227 7.68061523 6.08789062 9.26367188 C6.07951172 10.35228516 6.07113281 11.44089844 6.0625 12.5625 C6.05798828 13.65498047 6.05347656 14.74746094 6.04882812 15.87304688 C6.03699826 18.58208495 6.02051543 21.29101599 6 24 C4.02 24 2.04 24 0 24 C0 16.08 0 8.16 0 0 Z " fill="#5FA92D" transform="translate(19,151)"/>
<path d="M0 0 C7.92 0 15.84 0 24 0 C24 1.98 24 3.96 24 6 C16.41 6 8.82 6 1 6 C0.67 4.02 0.34 2.04 0 0 Z " fill="#5FA92D" transform="translate(151,19)"/>
<path d="M0 0 C9.24 0 18.48 0 28 0 C28 1.65 28 3.3 28 5 C18.76 5 9.52 5 0 5 C0 3.35 0 1.7 0 0 Z " fill="#AECF41" transform="translate(192,123)"/>
<path d="M0 0 C9.24 0 18.48 0 28 0 C28 1.65 28 3.3 28 5 C18.76 5 9.52 5 0 5 C0 3.35 0 1.7 0 0 Z " fill="#030501" transform="translate(37,117)"/>
<path d="M0 0 C7.59 0 15.18 0 23 0 C23 1.98 23 3.96 23 6 C15.41 6 7.82 6 0 6 C0 4.02 0 2.04 0 0 Z " fill="#000000" transform="translate(152,244)"/>
<path d="M0 0 C7.59 0 15.18 0 23 0 C23 1.98 23 3.96 23 6 C15.41 6 7.82 6 0 6 C0 4.02 0 2.04 0 0 Z " fill="#46632C" transform="translate(152,238)"/>
<path d="M0 0 C7.59 0 15.18 0 23 0 C23 1.98 23 3.96 23 6 C15.41 6 7.82 6 0 6 C0 4.02 0 2.04 0 0 Z " fill="#5FA92D" transform="translate(152,232)"/>
<path d="M0 0 C1.98 0 3.96 0 6 0 C6 7.59 6 15.18 6 23 C4.02 23 2.04 23 0 23 C0 15.41 0 7.82 0 0 Z " fill="#000000" transform="translate(244,152)"/>
<path d="M0 0 C1.98 0 3.96 0 6 0 C6 7.59 6 15.18 6 23 C4.02 23 2.04 23 0 23 C0 15.41 0 7.82 0 0 Z " fill="#46632C" transform="translate(238,152)"/>
<path d="M0 0 C1.98 0 3.96 0 6 0 C6 7.59 6 15.18 6 23 C4.02 23 2.04 23 0 23 C0 15.41 0 7.82 0 0 Z " fill="#5FA92D" transform="translate(232,152)"/>
<path d="M0 0 C1.98 0 3.96 0 6 0 C6 7.59 6 15.18 6 23 C4.02 23 2.04 23 0 23 C0 15.41 0 7.82 0 0 Z " fill="#46632B" transform="translate(13,152)"/>
<path d="M0 0 C1.98 0 3.96 0 6 0 C6 7.59 6 15.18 6 23 C4.02 23 2.04 23 0 23 C0 15.41 0 7.82 0 0 Z " fill="#000000" transform="translate(7,152)"/>
<path d="M0 0 C1.98 0 3.96 0 6 0 C6 7.59 6 15.18 6 23 C4.02 23 2.04 23 0 23 C0 15.41 0 7.82 0 0 Z " fill="#46632B" transform="translate(13,82)"/>
<path d="M0 0 C7.59 0 15.18 0 23 0 C23 1.98 23 3.96 23 6 C15.41 6 7.82 6 0 6 C0 4.02 0 2.04 0 0 Z " fill="#46632B" transform="translate(152,13)"/>
<path d="M0 0 C7.59 0 15.18 0 23 0 C23 1.98 23 3.96 23 6 C15.41 6 7.82 6 0 6 C0 4.02 0 2.04 0 0 Z " fill="#46632B" transform="translate(82,13)"/>
<path d="M0 0 C5.61 0 11.22 0 17 0 C17 3.63 17 7.26 17 11 C15.02 11 13.04 11 11 11 C11 9.35 11 7.7 11 6 C7.37 6 3.74 6 0 6 C0 4.02 0 2.04 0 0 Z " fill="#5FAA2C" transform="translate(48,146)"/>
<path d="M0 0 C3.63 0 7.26 0 11 0 C11 1.98 11 3.96 11 6 C12.65 6 14.3 6 16 6 C16 7.65 16 9.3 16 11 C12.37 11 8.74 11 5 11 C5 9.35 5 7.7 5 6 C3.35 6 1.7 6 0 6 C0 4.02 0 2.04 0 0 Z " fill="#ADCF40" transform="translate(152,77)"/>
<path d="M0 0 C5.61 0 11.22 0 17 0 C17 1.98 17 3.96 17 6 C11.39 6 5.78 6 0 6 C0 4.02 0 2.04 0 0 Z " fill="#60AB2D" transform="translate(65,226)"/>
<path d="M0 0 C5.61 0 11.22 0 17 0 C17 1.98 17 3.96 17 6 C11.39 6 5.78 6 0 6 C0 4.02 0 2.04 0 0 Z " fill="#080D02" transform="translate(192,140)"/>
<path d="M0 0 C5.61 0 11.22 0 17 0 C17 1.98 17 3.96 17 6 C11.39 6 5.78 6 0 6 C0 4.02 0 2.04 0 0 Z " fill="#080D02" transform="translate(48,140)"/>
<path d="M0 0 C1.98 0 3.96 0 6 0 C6 5.61 6 11.22 6 17 C4.02 17 2.04 17 0 17 C0 11.39 0 5.78 0 0 Z " fill="#ABCD3E" transform="translate(180,100)"/>
<path d="M0 0 C1.98 0 3.96 0 6 0 C6 5.61 6 11.22 6 17 C4.02 17 2.04 17 0 17 C0 11.39 0 5.78 0 0 Z " fill="#60AB2D" transform="translate(226,65)"/>
<path d="M0 0 C3.96 0 7.92 0 12 0 C12 3.63 12 7.26 12 11 C19.26 11 26.52 11 34 11 C34 11.33 34 11.66 34 12 C26.41 12 18.82 12 11 12 C11 10.02 11 8.04 11 6 C7.37 6 3.74 6 0 6 C0 4.02 0 2.04 0 0 Z " fill="#436029" transform="translate(71,232)"/>
<path d="M0 0 C1.98 0 3.96 0 6 0 C6 3.63 6 7.26 6 11 C7.98 11 9.96 11 12 11 C12 18.59 12 26.18 12 34 C11.67 34 11.34 34 11 34 C11 26.74 11 19.48 11 12 C7.37 12 3.74 12 0 12 C0 8.04 0 4.08 0 0 Z " fill="#436029" transform="translate(232,71)"/>
<path d="M0 0 C1.98 0 3.96 0 6 0 C6 3.63 6 7.26 6 11 C4.35 11 2.7 11 1 11 C0.67 12.98 0.34 14.96 0 17 C-1.65 17 -3.3 17 -5 17 C-5 15.02 -5 13.04 -5 11 C-3.35 11 -1.7 11 0 11 C0 7.37 0 3.74 0 0 Z " fill="#60AB2D" transform="translate(226,123)"/>
<path d="M0 0 C5.61 0 11.22 0 17 0 C16.67 1.98 16.34 3.96 16 6 C10.72 6 5.44 6 0 6 C0 4.02 0 2.04 0 0 Z " fill="#7DA400" transform="translate(37,128)"/>
<path d="M0 0 C1.98 0 3.96 0 6 0 C6 3.96 6 7.92 6 12 C7.65 12 9.3 12 11 12 C11 13.65 11 15.3 11 17 C9.35 17 7.7 17 6 17 C5.67 15.02 5.34 13.04 5 11 C3.35 11 1.7 11 0 11 C0 7.37 0 3.74 0 0 Z " fill="#599F29" transform="translate(25,123)"/>
<path d="M0 0 C1.65 0 3.3 0 5 0 C5 3.63 5 7.26 5 11 C1.37 11 -2.26 11 -6 11 C-6 9.02 -6 7.04 -6 5 C-4.02 5 -2.04 5 0 5 C0 3.35 0 1.7 0 0 Z " fill="#ADCF3F" transform="translate(83,89)"/>
<path d="M0 0 C0.33 0 0.66 0 1 0 C1 1.65 1 3.3 1 5 C15.85 5 30.7 5 46 5 C46 3.35 46 1.7 46 0 C46.33 0 46.66 0 47 0 C47 1.65 47 3.3 47 5 C50.63 5 54.26 5 58 5 C58 5.33 58 5.66 58 6 C54.37 6 50.74 6 47 6 C47 7.65 47 9.3 47 11 C46.67 11 46.34 11 46 11 C46 9.35 46 7.7 46 6 C31.15 6 16.3 6 1 6 C1 7.65 1 9.3 1 11 C0.67 11 0.34 11 0 11 C0 9.35 0 7.7 0 6 C-3.63 6 -7.26 6 -11 6 C-11 5.67 -11 5.34 -11 5 C-7.37 5 -3.74 5 0 5 C0 3.35 0 1.7 0 0 Z " fill="#344E09" transform="translate(105,175)"/>
<path d="M0 0 C5.61 0 11.22 0 17 0 C17 1.65 17 3.3 17 5 C11.39 5 5.78 5 0 5 C0 3.35 0 1.7 0 0 Z " fill="#FC0000" transform="translate(140,123)"/>
<path d="M0 0 C5.61 0 11.22 0 17 0 C17 1.65 17 3.3 17 5 C11.39 5 5.78 5 0 5 C0 3.35 0 1.7 0 0 Z " fill="#FC0000" transform="translate(100,123)"/>
<path d="M0 0 C1.65 0 3.3 0 5 0 C5 5.61 5 11.22 5 17 C3.35 17 1.7 17 0 17 C0 11.39 0 5.78 0 0 Z " fill="#A2CD1C" transform="translate(175,100)"/>
<path d="M0 0 C1.65 0 3.3 0 5 0 C5 5.61 5 11.22 5 17 C3.35 17 1.7 17 0 17 C0 11.39 0 5.78 0 0 Z " fill="#AED03F" transform="translate(72,100)"/>
<path d="M0 0 C0.33 0 0.66 0 1 0 C1 1.65 1 3.3 1 5 C2.65 5 4.3 5 6 5 C6 5.33 6 5.66 6 6 C4.35 6 2.7 6 1 6 C1 7.65 1 9.3 1 11 C-2.96 11 -6.92 11 -11 11 C-11 9.02 -11 7.04 -11 5 C-7.37 5 -3.74 5 0 5 C0 3.35 0 1.7 0 0 Z " fill="#9FC820" transform="translate(168,83)"/>
<path d="M0 0 C6.60196104 -0.02537644 13.20390948 -0.04287804 19.8059082 -0.05493164 C22.05135569 -0.05995719 24.29679992 -0.06677865 26.54223633 -0.07543945 C29.77165534 -0.08758281 33.00103105 -0.09324614 36.23046875 -0.09765625 C37.23272995 -0.10281754 38.23499115 -0.10797882 39.2676239 -0.11329651 C40.67852043 -0.11340981 40.67852043 -0.11340981 42.11791992 -0.11352539 C42.94176682 -0.115746 43.76561371 -0.11796661 44.61442566 -0.12025452 C47.15755317 0.0079421 49.51840931 0.44270612 52 1 C52 2.65 52 4.3 52 6 C50.02 6 48.04 6 46 6 C46 4.35 46 2.7 46 1 C31.15 1 16.3 1 1 1 C1 2.65 1 4.3 1 6 C0.67 6 0.34 6 0 6 C0 4.02 0 2.04 0 0 Z " fill="#9CCB0D" transform="translate(105,82)"/>
<path d="M0 0 C0.33 0 0.66 0 1 0 C1 1.65 1 3.3 1 5 C4.3 5 7.6 5 11 5 C11 5.33 11 5.66 11 6 C5.72 6 0.44 6 -5 6 C-5 7.65 -5 9.3 -5 11 C-3.35 11 -1.7 11 0 11 C0 12.98 0 14.96 0 17 C-1.98 17 -3.96 17 -6 17 C-6 15.35 -6 13.7 -6 12 C-7.65 12 -9.3 12 -11 12 C-11 13.65 -11 15.3 -11 17 C-11.33 17 -11.66 17 -12 17 C-12 15.02 -12 13.04 -12 11 C-10.02 11 -8.04 11 -6 11 C-6 9.02 -6 7.04 -6 5 C-4.02 5 -2.04 5 0 5 C0 3.35 0 1.7 0 0 Z " fill="#94B726" transform="translate(94,77)"/>
<path d="M0 0 C1.65 0 3.3 0 5 0 C5.90413673 3.83724172 6.10576898 7.37502274 6.0625 11.3125 C6.05347656 12.38113281 6.04445312 13.44976562 6.03515625 14.55078125 C6.02355469 15.35902344 6.01195312 16.16726562 6 17 C5.67 17 5.34 17 5 17 C5 15.02 5 13.04 5 11 C3.35 11 1.7 11 0 11 C0 9.35 0 7.7 0 6 C-1.98 6 -3.96 6 -6 6 C-6 5.67 -6 5.34 -6 5 C-4.02 5 -2.04 5 0 5 C0 3.35 0 1.7 0 0 Z " fill="#548825" transform="translate(169,77)"/>
<path d="M0 0 C1.98 0 3.96 0 6 0 C6 3.96 6 7.92 6 12 C4.02 12 2.04 12 0 12 C0 8.04 0 4.08 0 0 Z " fill="#589D29" transform="translate(180,157)"/>
<path d="M0 0 C1.98 0 3.96 0 6 0 C6 3.96 6 7.92 6 12 C4.02 12 2.04 12 0 12 C0 8.04 0 4.08 0 0 Z " fill="#589E29" transform="translate(71,157)"/>
<path d="M0 0 C3.96 0 7.92 0 12 0 C12 1.98 12 3.96 12 6 C8.04 6 4.08 6 0 6 C0 4.02 0 2.04 0 0 Z " fill="#5CA52B" transform="translate(209,140)"/>
<path d="M0 0 C3.96 0 7.92 0 12 0 C12 1.98 12 3.96 12 6 C8.04 6 4.08 6 0 6 C0 4.02 0 2.04 0 0 Z " fill="#0D1302" transform="translate(209,134)"/>
<path d="M0 0 C0.33 0 0.66 0 1 0 C1 3.96 1 7.92 1 12 C2.65 12 4.3 12 6 12 C6.042721 13.66611905 6.04063832 15.33382885 6 17 C5 18 5 18 2.31616211 18.11352539 C1.14835205 18.10828857 -0.01945801 18.10305176 -1.22265625 18.09765625 C-2.48271484 18.09443359 -3.74277344 18.09121094 -5.04101562 18.08789062 C-6.38151109 18.07953403 -7.72200588 18.07106907 -9.0625 18.0625 C-10.40689942 18.0574866 -11.7513006 18.05292342 -13.09570312 18.04882812 C-16.39717941 18.03699488 -19.69856803 18.02050971 -23 18 C-23 17.67 -23 17.34 -23 17 C-15.41 17 -7.82 17 0 17 C0 11.39 0 5.78 0 0 Z " fill="#8B9904" transform="translate(163,111)"/>
<path d="M0 0 C3.63 0 7.26 0 11 0 C11 1.98 11 3.96 11 6 C7.37 6 3.74 6 0 6 C0 4.02 0 2.04 0 0 Z " fill="#49682D" transform="translate(175,232)"/>
<path d="M0 0 C1.98 0 3.96 0 6 0 C6 3.63 6 7.26 6 11 C4.02 11 2.04 11 0 11 C0 7.37 0 3.74 0 0 Z " fill="#49682D" transform="translate(232,175)"/>
<path d="M0 0 C1.98 0 3.96 0 6 0 C6 3.63 6 7.26 6 11 C4.02 11 2.04 11 0 11 C0 7.37 0 3.74 0 0 Z " fill="#49672D" transform="translate(19,175)"/>
<path d="M0 0 C1.98 0 3.96 0 6 0 C6 3.63 6 7.26 6 11 C4.02 11 2.04 11 0 11 C0 7.37 0 3.74 0 0 Z " fill="#080C01" transform="translate(186,146)"/>
<path d="M0 0 C1.98 0 3.96 0 6 0 C6 3.63 6 7.26 6 11 C4.02 11 2.04 11 0 11 C0 7.37 0 3.74 0 0 Z " fill="#080C01" transform="translate(65,146)"/>
<path d="M0 0 C3.63 0 7.26 0 11 0 C11 1.98 11 3.96 11 6 C7.37 6 3.74 6 0 6 C0 4.02 0 2.04 0 0 Z " fill="#0A0F00" transform="translate(37,134)"/>
<path d="M0 0 C3.63 0 7.26 0 11 0 C11 1.98 11 3.96 11 6 C7.37 6 3.74 6 0 6 C0 4.02 0 2.04 0 0 Z " fill="#709A3D" transform="translate(192,128)"/>
<path d="M0 0 C3.63 0 7.26 0 11 0 C11 1.98 11 3.96 11 6 C7.37 6 3.74 6 0 6 C0 4.02 0 2.04 0 0 Z " fill="#78A332" transform="translate(54,128)"/>
<path d="M0 0 C3.63 0 7.26 0 11 0 C11 1.98 11 3.96 11 6 C7.37 6 3.74 6 0 6 C0 4.02 0 2.04 0 0 Z " fill="#7CA200" transform="translate(146,111)"/>
<path d="M0 0 C3.63 0 7.26 0 11 0 C11 1.98 11 3.96 11 6 C7.37 6 3.74 6 0 6 C0 4.02 0 2.04 0 0 Z " fill="#7CA200" transform="translate(100,111)"/>
<path d="M0 0 C3.63 0 7.26 0 11 0 C11 1.98 11 3.96 11 6 C7.37 6 3.74 6 0 6 C0 4.02 0 2.04 0 0 Z " fill="#A1CC1A" transform="translate(152,105)"/>
<path d="M0 0 C3.63 0 7.26 0 11 0 C11 1.98 11 3.96 11 6 C7.37 6 3.74 6 0 6 C0 4.02 0 2.04 0 0 Z " fill="#A1CC1A" transform="translate(94,105)"/>
<path d="M0 0 C1.98 0 3.96 0 6 0 C6 3.63 6 7.26 6 11 C4.02 11 2.04 11 0 11 C0 7.37 0 3.74 0 0 Z " fill="#49672D" transform="translate(19,71)"/>
<path d="M0 0 C3.63 0 7.26 0 11 0 C11 1.98 11 3.96 11 6 C7.37 6 3.74 6 0 6 C0 4.02 0 2.04 0 0 Z " fill="#49672D" transform="translate(175,19)"/>
<path d="M0 0 C3.63 0 7.26 0 11 0 C11 1.98 11 3.96 11 6 C7.37 6 3.74 6 0 6 C0 4.02 0 2.04 0 0 Z " fill="#49672D" transform="translate(71,19)"/>
<path d="M0 0 C0.33 0 0.66 0 1 0 C1 5.61 1 11.22 1 17 C2.65 17 4.3 17 6 17 C6 18.98 6 20.96 6 23 C4.02 23 2.04 23 0 23 C0 21.35 0 19.7 0 18 C-1.65 18 -3.3 18 -5 18 C-5 19.65 -5 21.3 -5 23 C-5.33 23 -5.66 23 -6 23 C-6 21.02 -6 19.04 -6 17 C-4.02 17 -2.04 17 0 17 C0 11.39 0 5.78 0 0 Z " fill="#9DC228" transform="translate(71,100)"/>
<path d="M0 0 C1.32 0 2.64 0 4 0 C4 5.28 4 10.56 4 16 C2.68 16 1.36 16 0 16 C0 10.72 0 5.44 0 0 Z " fill="#000000" transform="translate(187,100)"/>
<path d="M0 0 C1.32 0 2.64 0 4 0 C4 5.28 4 10.56 4 16 C2.68 16 1.36 16 0 16 C0 10.72 0 5.44 0 0 Z " fill="#000000" transform="translate(66,100)"/>
<path d="M0 0 C1.65 0 3.3 0 5 0 C5 1.98 5 3.96 5 6 C3.35 6 1.7 6 0 6 C0 7.65 0 9.3 0 11 C-1.98 11 -3.96 11 -6 11 C-6 9.35 -6 7.7 -6 6 C-4.35 5.67 -2.7 5.34 -1 5 C-0.67 3.35 -0.34 1.7 0 0 Z " fill="#000000" transform="translate(216,210)"/>
<path d="M0 0 C3.96 0 7.92 0 12 0 C12 1.65 12 3.3 12 5 C6.06 5.495 6.06 5.495 0 6 C0 4.02 0 2.04 0 0 Z " fill="#7FA700" transform="translate(151,169)"/>
<path d="M0 0 C3.96 0 7.92 0 12 0 C12 1.98 12 3.96 12 6 C8.04 5.67 4.08 5.34 0 5 C0 3.35 0 1.7 0 0 Z " fill="#7FA600" transform="translate(94,169)"/>
<path d="M0 0 C3.96 0 7.92 0 12 0 C12 1.65 12 3.3 12 5 C8.04 5 4.08 5 0 5 C0 3.35 0 1.7 0 0 Z " fill="#5FA92C" transform="translate(163,175)"/>
<path d="M0 0 C3.96 0 7.92 0 12 0 C12 1.65 12 3.3 12 5 C8.04 5 4.08 5 0 5 C0 3.35 0 1.7 0 0 Z " fill="#5FA92C" transform="translate(82,175)"/>
<path d="M0 0 C1.65 0 3.3 0 5 0 C5 3.96 5 7.92 5 12 C3.35 12 1.7 12 0 12 C0 8.04 0 4.08 0 0 Z " fill="#7FA700" transform="translate(158,140)"/>
<path d="M0 0 C1.65 0 3.3 0 5 0 C5 3.96 5 7.92 5 12 C3.35 12 1.7 12 0 12 C0 8.04 0 4.08 0 0 Z " fill="#7FA700" transform="translate(94,140)"/>
<path d="M0 0 C1.65 0 3.3 0 5 0 C5 3.96 5 7.92 5 12 C3.35 12 1.7 12 0 12 C0 8.04 0 4.08 0 0 Z " fill="#A2CD1A" transform="translate(164,111)"/>
<path d="M0 0 C1.65 0 3.3 0 5 0 C5 3.96 5 7.92 5 12 C3.35 12 1.7 12 0 12 C0 8.04 0 4.08 0 0 Z " fill="#A2CD1A" transform="translate(88,111)"/>
<path d="M0 0 C1.98 0 3.96 0 6 0 C6 1.65 6 3.3 6 5 C4.02 5 2.04 5 0 5 C0 3.35 0 1.7 0 0 Z M-5 5 C-3.35 5 -1.7 5 0 5 C0 6.98 0 8.96 0 11 C-1.65 11 -3.3 11 -5 11 C-5 9.02 -5 7.04 -5 5 Z " fill="#000000" transform="translate(41,36)"/>
<path d="M0 0 C3.63 0 7.26 0 11 0 C11 1.65 11 3.3 11 5 C7.37 5 3.74 5 0 5 C0 3.35 0 1.7 0 0 Z " fill="#4B692F" transform="translate(192,221)"/>
<path d="M0 0 C3.63 0 7.26 0 11 0 C11 1.65 11 3.3 11 5 C7.37 5 3.74 5 0 5 C0 3.35 0 1.7 0 0 Z " fill="#4B692F" transform="translate(54,221)"/>
<path d="M0 0 C1.65 0 3.3 0 5 0 C5 3.63 5 7.26 5 11 C3.35 11 1.7 11 0 11 C0 7.37 0 3.74 0 0 Z " fill="#4B692F" transform="translate(221,192)"/>
<path d="M0 0 C1.65 0 3.3 0 5 0 C5 3.63 5 7.26 5 11 C3.35 11 1.7 11 0 11 C0 7.37 0 3.74 0 0 Z " fill="#4B692F" transform="translate(31,192)"/>
<path d="M0 0 C3.63 0 7.26 0 11 0 C11 1.65 11 3.3 11 5 C7.37 5 3.74 5 0 5 C0 3.35 0 1.7 0 0 Z " fill="#60AC2D" transform="translate(152,181)"/>
<path d="M0 0 C3.63 0 7.26 0 11 0 C11 1.65 11 3.3 11 5 C7.37 5 3.74 5 0 5 C0 3.35 0 1.7 0 0 Z " fill="#60AC2D" transform="translate(94,181)"/>
<path d="M0 0 C3.63 0 7.26 0 11 0 C11 1.65 11 3.3 11 5 C7.37 5 3.74 5 0 5 C0 3.35 0 1.7 0 0 Z " fill="#010100" transform="translate(152,175)"/>
<path d="M0 0 C3.63 0 7.26 0 11 0 C11 1.65 11 3.3 11 5 C7.37 5 3.74 5 0 5 C0 3.35 0 1.7 0 0 Z " fill="#010200" transform="translate(94,175)"/>
<path d="M0 0 C3.63 0 7.26 0 11 0 C11 1.65 11 3.3 11 5 C7.37 5 3.74 5 0 5 C0 3.35 0 1.7 0 0 Z " fill="#030400" transform="translate(163,169)"/>
<path d="M0 0 C3.63 0 7.26 0 11 0 C11 1.65 11 3.3 11 5 C7.37 5 3.74 5 0 5 C0 3.35 0 1.7 0 0 Z " fill="#030400" transform="translate(83,169)"/>
<path d="M0 0 C3.63 0 7.26 0 11 0 C11 1.65 11 3.3 11 5 C7.37 5 3.74 5 0 5 C0 3.35 0 1.7 0 0 Z " fill="#7FA700" transform="translate(163,163)"/>
<path d="M0 0 C3.63 0 7.26 0 11 0 C11 1.65 11 3.3 11 5 C7.37 5 3.74 5 0 5 C0 3.35 0 1.7 0 0 Z " fill="#7FA700" transform="translate(83,163)"/>
<path d="M0 0 C1.65 0 3.3 0 5 0 C5 3.63 5 7.26 5 11 C3.35 11 1.7 11 0 11 C0 7.37 0 3.74 0 0 Z " fill="#FDFDFA" transform="translate(152,140)"/>
<path d="M0 0 C1.65 0 3.3 0 5 0 C5 3.63 5 7.26 5 11 C3.35 11 1.7 11 0 11 C0 7.37 0 3.74 0 0 Z " fill="#FCFDFA" transform="translate(100,140)"/>
<path d="M0 0 C3.63 0 7.26 0 11 0 C11 1.65 11 3.3 11 5 C7.37 5 3.74 5 0 5 C0 3.35 0 1.7 0 0 Z " fill="#61AD2D" transform="translate(36,141)"/>
<path d="M0 0 C1.65 0 3.3 0 5 0 C5 3.63 5 7.26 5 11 C3.35 11 1.7 11 0 11 C0 7.37 0 3.74 0 0 Z " fill="#000000" transform="translate(221,123)"/>
<path d="M0 0 C1.65 0 3.3 0 5 0 C5 3.3 5 6.6 5 10 C3.02 10 1.04 10 -1 10 C-0.67 6.7 -0.34 3.4 0 0 Z " fill="#A3CD1D" transform="translate(66,118)"/>
<path d="M0 0 C1.65 0 3.3 0 5 0 C5 3.63 5 7.26 5 11 C3.35 11 1.7 11 0 11 C0 7.37 0 3.74 0 0 Z " fill="#000000" transform="translate(31,123)"/>
<path d="M0 0 C1.65 0 3.3 0 5 0 C5 3.63 5 7.26 5 11 C3.35 11 1.7 11 0 11 C0 7.37 0 3.74 0 0 Z " fill="#4B692F" transform="translate(221,54)"/>
<path d="M0 0 C1.65 0 3.3 0 5 0 C5 3.63 5 7.26 5 11 C3.35 11 1.7 11 0 11 C0 7.37 0 3.74 0 0 Z " fill="#4B692F" transform="translate(31,54)"/>
<path d="M0 0 C3.63 0 7.26 0 11 0 C11 1.65 11 3.3 11 5 C7.37 5 3.74 5 0 5 C0 3.35 0 1.7 0 0 Z " fill="#4B692F" transform="translate(192,31)"/>
<path d="M0 0 C3.63 0 7.26 0 11 0 C11 1.65 11 3.3 11 5 C7.37 5 3.74 5 0 5 C0 3.35 0 1.7 0 0 Z " fill="#4B692F" transform="translate(54,31)"/>
<path d="M0 0 C3.3 0 6.6 0 10 0 C10 1.65 10 3.3 10 5 C6.7 5 3.4 5 0 5 C0 3.35 0 1.7 0 0 Z " fill="#AED042" transform="translate(95,77)"/>
<path d="M0 0 C0.33 0 0.66 0 1 0 C1 5.61 1 11.22 1 17 C-0.98 17.33 -2.96 17.66 -5 18 C-5 16.02 -5 14.04 -5 12 C-3.35 12 -1.7 12 0 12 C0 8.04 0 4.08 0 0 Z " fill="#8BB406" transform="translate(93,111)"/>
<path d="M0 0 C0.33 0 0.66 0 1 0 C1.02709444 2.08326131 1.04643873 4.16662441 1.0625 6.25 C1.07410156 7.41015625 1.08570313 8.5703125 1.09765625 9.765625 C1.01782092 12.40977128 0.78643778 14.49826091 0 17 C-1.65 17 -3.3 17 -5 17 C-5 15.02 -5 13.04 -5 11 C-3.35 11 -1.7 11 0 11 C0 7.37 0 3.74 0 0 Z " fill="#529226" transform="translate(226,123)"/>
<path d="M0 0 C5.61 0 11.22 0 17 0 C17 0.33 17 0.66 17 1 C13.37 1 9.74 1 6 1 C6 2.65 6 4.3 6 6 C4.35 6 2.7 6 1 6 C0.67 4.02 0.34 2.04 0 0 Z " fill="#98C40D" transform="translate(203,128)"/>
<path d="M0 0 C5.61 0 11.22 0 17 0 C16.67 1.98 16.34 3.96 16 6 C14.35 6 12.7 6 11 6 C11 4.35 11 2.7 11 1 C7.37 1 3.74 1 0 1 C0 0.67 0 0.34 0 0 Z " fill="#98C40D" transform="translate(37,128)"/>
<path d="M0 0 C0.33 0 0.66 0 1 0 C1 3.63 1 7.26 1 11 C-0.98 11 -2.96 11 -5 11 C-5 9.02 -5 7.04 -5 5 C-3.35 5 -1.7 5 0 5 C0 3.35 0 1.7 0 0 Z " fill="#7FA500" transform="translate(185,146)"/>
<path d="M0 0 C1.98 0 3.96 0 6 0 C6 1.98 6 3.96 6 6 C4.02 6 2.04 6 0 6 C0 4.02 0 2.04 0 0 Z " fill="#4A6B2C" transform="translate(186,226)"/>
<path d="M0 0 C1.98 0 3.96 0 6 0 C6 1.98 6 3.96 6 6 C4.02 6 2.04 6 0 6 C0 4.02 0 2.04 0 0 Z " fill="#496B2C" transform="translate(65,226)"/>
<path d="M0 0 C1.98 0 3.96 0 6 0 C6 1.98 6 3.96 6 6 C4.02 6 2.04 6 0 6 C0 4.02 0 2.04 0 0 Z " fill="#000000" transform="translate(204,221)"/>
<path d="M0 0 C1.98 0 3.96 0 6 0 C6 1.98 6 3.96 6 6 C4.02 6 2.04 6 0 6 C0 4.02 0 2.04 0 0 Z " fill="#000000" transform="translate(47,221)"/>
<path d="M0 0 C1.98 0 3.96 0 6 0 C6 1.98 6 3.96 6 6 C4.02 6 2.04 6 0 6 C0 4.02 0 2.04 0 0 Z " fill="#48682C" transform="translate(209,209)"/>
<path d="M0 0 C1.98 0 3.96 0 6 0 C6 1.98 6 3.96 6 6 C4.02 6 2.04 6 0 6 C0 4.02 0 2.04 0 0 Z " fill="#60AA2D" transform="translate(203,209)"/>
<path d="M0 0 C1.98 0 3.96 0 6 0 C6 1.98 6 3.96 6 6 C4.02 6 2.04 6 0 6 C0 4.02 0 2.04 0 0 Z " fill="#60AA2D" transform="translate(48,209)"/>
<path d="M0 0 C1.98 0 3.96 0 6 0 C6 1.98 6 3.96 6 6 C4.02 6 2.04 6 0 6 C0 4.02 0 2.04 0 0 Z " fill="#48672C" transform="translate(42,209)"/>
<path d="M0 0 C1.98 0 3.96 0 6 0 C6 1.98 6 3.96 6 6 C4.02 6 2.04 6 0 6 C0 4.02 0 2.04 0 0 Z " fill="#60AA2D" transform="translate(209,203)"/>
<path d="M0 0 C1.98 0 3.96 0 6 0 C6 1.98 6 3.96 6 6 C4.02 6 2.04 6 0 6 C0 4.02 0 2.04 0 0 Z " fill="#60AA2D" transform="translate(42,203)"/>
<path d="M0 0 C1.98 0 3.96 0 6 0 C6 1.98 6 3.96 6 6 C4.02 6 2.04 6 0 6 C0 4.02 0 2.04 0 0 Z " fill="#000000" transform="translate(30,204)"/>
<path d="M0 0 C1.98 0 3.96 0 6 0 C6 1.98 6 3.96 6 6 C4.02 6 2.04 6 0 6 C0 4.02 0 2.04 0 0 Z " fill="#4A6B2C" transform="translate(226,186)"/>
<path d="M0 0 C1.98 0 3.96 0 6 0 C6 1.98 6 3.96 6 6 C4.02 6 2.04 6 0 6 C0 4.02 0 2.04 0 0 Z " fill="#4A6B2C" transform="translate(25,186)"/>
<path d="M0 0 C1.98 0 3.96 0 6 0 C6 1.98 6 3.96 6 6 C4.02 6 2.04 6 0 6 C0 4.02 0 2.04 0 0 Z " fill="#589E29" transform="translate(186,157)"/>
<path d="M0 0 C1.98 0 3.96 0 6 0 C6 1.98 6 3.96 6 6 C4.02 6 2.04 6 0 6 C0 4.02 0 2.04 0 0 Z " fill="#111701" transform="translate(180,157)"/>
<path d="M0 0 C1.98 0 3.96 0 6 0 C6 1.98 6 3.96 6 6 C4.02 6 2.04 6 0 6 C0 4.02 0 2.04 0 0 Z " fill="#111701" transform="translate(71,157)"/>
<path d="M0 0 C1.98 0 3.96 0 6 0 C6 1.98 6 3.96 6 6 C4.02 6 2.04 6 0 6 C0 4.02 0 2.04 0 0 Z " fill="#589E29" transform="translate(65,157)"/>
<path d="M0 0 C1.98 0 3.96 0 6 0 C6 1.98 6 3.96 6 6 C4.02 6 2.04 6 0 6 C0 4.02 0 2.04 0 0 Z " fill="#769B00" transform="translate(186,140)"/>
<path d="M0 0 C1.98 0 3.96 0 6 0 C6 1.98 6 3.96 6 6 C4.02 6 2.04 6 0 6 C0 4.02 0 2.04 0 0 Z " fill="#769B00" transform="translate(65,140)"/>
<path d="M0 0 C1.98 0 3.96 0 6 0 C6 1.98 6 3.96 6 6 C4.02 6 2.04 6 0 6 C0 4.02 0 2.04 0 0 Z " fill="#A1CD1B" transform="translate(186,123)"/>
<path d="M0 0 C1.98 0 3.96 0 6 0 C6 1.98 6 3.96 6 6 C4.02 6 2.04 6 0 6 C0 4.02 0 2.04 0 0 Z " fill="#A2CD1B" transform="translate(180,117)"/>
<path d="M0 0 C1.98 0 3.96 0 6 0 C6 1.98 6 3.96 6 6 C4.02 6 2.04 6 0 6 C0 4.02 0 2.04 0 0 Z " fill="#759800" transform="translate(140,117)"/>
<path d="M0 0 C1.98 0 3.96 0 6 0 C6 1.98 6 3.96 6 6 C4.02 6 2.04 6 0 6 C0 4.02 0 2.04 0 0 Z " fill="#749800" transform="translate(111,117)"/>
<path d="M0 0 C1.98 0 3.96 0 6 0 C6 1.98 6 3.96 6 6 C4.02 6 2.04 6 0 6 C0 4.02 0 2.04 0 0 Z " fill="#84AC00" transform="translate(134,111)"/>
<path d="M0 0 C1.98 0 3.96 0 6 0 C6 1.98 6 3.96 6 6 C4.02 6 2.04 6 0 6 C0 4.02 0 2.04 0 0 Z " fill="#84AC00" transform="translate(117,111)"/>
<path d="M0 0 C1.98 0 3.96 0 6 0 C6 1.98 6 3.96 6 6 C4.02 6 2.04 6 0 6 C0 4.02 0 2.04 0 0 Z " fill="#0F1A07" transform="translate(82,82)"/>
<path d="M0 0 C1.98 0 3.96 0 6 0 C6 1.98 6 3.96 6 6 C4.02 6 2.04 6 0 6 C0 4.02 0 2.04 0 0 Z " fill="#496B2C" transform="translate(226,65)"/>
<path d="M0 0 C1.98 0 3.96 0 6 0 C6 1.98 6 3.96 6 6 C4.02 6 2.04 6 0 6 C0 4.02 0 2.04 0 0 Z " fill="#496A2C" transform="translate(25,65)"/>
<path d="M0 0 C1.98 0 3.96 0 6 0 C6 1.98 6 3.96 6 6 C4.02 6 2.04 6 0 6 C0 4.02 0 2.04 0 0 Z " fill="#60AA2D" transform="translate(209,48)"/>
<path d="M0 0 C1.98 0 3.96 0 6 0 C6 1.98 6 3.96 6 6 C4.02 6 2.04 6 0 6 C0 4.02 0 2.04 0 0 Z " fill="#60A92D" transform="translate(42,48)"/>
<path d="M0 0 C1.98 0 3.96 0 6 0 C6 1.98 6 3.96 6 6 C4.02 6 2.04 6 0 6 C0 4.02 0 2.04 0 0 Z " fill="#000000" transform="translate(221,47)"/>
<path d="M0 0 C1.98 0 3.96 0 6 0 C6 1.98 6 3.96 6 6 C4.02 6 2.04 6 0 6 C0 4.02 0 2.04 0 0 Z " fill="#000000" transform="translate(30,47)"/>
<path d="M0 0 C1.98 0 3.96 0 6 0 C6 1.98 6 3.96 6 6 C4.02 6 2.04 6 0 6 C0 4.02 0 2.04 0 0 Z " fill="#48672C" transform="translate(209,42)"/>
<path d="M0 0 C1.98 0 3.96 0 6 0 C6 1.98 6 3.96 6 6 C4.02 6 2.04 6 0 6 C0 4.02 0 2.04 0 0 Z " fill="#60AA2D" transform="translate(203,42)"/>
<path d="M0 0 C1.98 0 3.96 0 6 0 C6 1.98 6 3.96 6 6 C4.02 6 2.04 6 0 6 C0 4.02 0 2.04 0 0 Z " fill="#48672C" transform="translate(42,42)"/>
<path d="M0 0 C1.98 0 3.96 0 6 0 C6 1.98 6 3.96 6 6 C4.02 6 2.04 6 0 6 C0 4.02 0 2.04 0 0 Z " fill="#000000" transform="translate(204,30)"/>
<path d="M0 0 C1.98 0 3.96 0 6 0 C6 1.98 6 3.96 6 6 C4.02 6 2.04 6 0 6 C0 4.02 0 2.04 0 0 Z " fill="#000000" transform="translate(47,30)"/>
<path d="M0 0 C1.98 0 3.96 0 6 0 C6 1.98 6 3.96 6 6 C4.02 6 2.04 6 0 6 C0 4.02 0 2.04 0 0 Z " fill="#4A6B2C" transform="translate(186,25)"/>
<path d="M0 0 C1.98 0 3.96 0 6 0 C6 1.98 6 3.96 6 6 C4.02 6 2.04 6 0 6 C0 4.02 0 2.04 0 0 Z " fill="#496A2C" transform="translate(65,25)"/>
<path d="M0 0 C1.2065625 0.0309375 1.2065625 0.0309375 2.4375 0.0625 C2.4375 2.0425 2.4375 4.0225 2.4375 6.0625 C0.4575 6.0625 -1.5225 6.0625 -3.5625 6.0625 C-3.605221 4.39638095 -3.60313832 2.72867115 -3.5625 1.0625 C-2.5625 0.0625 -2.5625 0.0625 0 0 Z " fill="#7EA500" transform="translate(177.5625,156.9375)"/>
<path d="M0 0 C1.98 0 3.96 0 6 0 C5.67 1.98 5.34 3.96 5 6 C3.35 6 1.7 6 0 6 C0 4.02 0 2.04 0 0 Z " fill="#90BB00" transform="translate(169,157)"/>
<path d="M0 0 C0.33 0 0.66 0 1 0 C1 1.98 1 3.96 1 6 C2.32 6 3.64 6 5 6 C5 7.65 5 9.3 5 11 C3.35 11 1.7 11 0 11 C0 7.37 0 3.74 0 0 Z " fill="#7CA200" transform="translate(71,146)"/>
<path d="M0 0 C1.98 0 3.96 0 6 0 C6 1.65 6 3.3 6 5 C4.02 5 2.04 5 0 5 C0 3.35 0 1.7 0 0 Z " fill="#5FA92D" transform="translate(186,221)"/>
<path d="M0 0 C1.98 0 3.96 0 6 0 C6 1.65 6 3.3 6 5 C4.02 5 2.04 5 0 5 C0 3.35 0 1.7 0 0 Z " fill="#5FA92D" transform="translate(65,221)"/>
<path d="M0 0 C1.98 0 3.96 0 6 0 C6 1.65 6 3.3 6 5 C4.02 5 2.04 5 0 5 C0 3.35 0 1.7 0 0 Z " fill="#4C6D2E" transform="translate(203,215)"/>
<path d="M0 0 C1.98 0 3.96 0 6 0 C6 1.65 6 3.3 6 5 C4.02 5 2.04 5 0 5 C0 3.35 0 1.7 0 0 Z " fill="#4B6D2E" transform="translate(48,215)"/>
<path d="M0 0 C1.65 0 3.3 0 5 0 C5 1.98 5 3.96 5 6 C3.35 6 1.7 6 0 6 C0 4.02 0 2.04 0 0 Z " fill="#4C6D2E" transform="translate(215,203)"/>
<path d="M0 0 C1.65 0 3.3 0 5 0 C5 1.98 5 3.96 5 6 C3.35 6 1.7 6 0 6 C0 4.02 0 2.04 0 0 Z " fill="#4B6D2E" transform="translate(37,203)"/>
<path d="M0 0 C1.65 0 3.3 0 5 0 C5 1.98 5 3.96 5 6 C3.35 6 1.7 6 0 6 C0 4.02 0 2.04 0 0 Z " fill="#5FA92D" transform="translate(221,186)"/>
<path d="M0 0 C1.65 0 3.3 0 5 0 C5 1.98 5 3.96 5 6 C3.35 6 1.7 6 0 6 C0 4.02 0 2.04 0 0 Z " fill="#5FA92D" transform="translate(31,186)"/>
<path d="M0 0 C1.98 0 3.96 0 6 0 C6 1.65 6 3.3 6 5 C4.02 5 2.04 5 0 5 C0 3.35 0 1.7 0 0 Z " fill="#739700" transform="translate(157,169)"/>
<path d="M0 0 C1.98 0 3.96 0 6 0 C6 1.65 6 3.3 6 5 C4.02 5 2.04 5 0 5 C0 3.35 0 1.7 0 0 Z " fill="#739600" transform="translate(94,169)"/>
<path d="M0 0 C1.65 0 3.3 0 5 0 C5 1.98 5 3.96 5 6 C3.35 6 1.7 6 0 6 C0 4.02 0 2.04 0 0 Z " fill="#070B01" transform="translate(175,163)"/>
<path d="M0 0 C1.65 0 3.3 0 5 0 C5 1.98 5 3.96 5 6 C3.35 6 1.7 6 0 6 C0 4.02 0 2.04 0 0 Z " fill="#070B01" transform="translate(77,163)"/>
<path d="M0 0 C1.65 0 3.3 0 5 0 C5 1.98 5 3.96 5 6 C3.35 6 1.7 6 0 6 C0 4.02 0 2.04 0 0 Z " fill="#90BB00" transform="translate(83,157)"/>
<path d="M0 0 C1.98 0 3.96 0 6 0 C6 1.65 6 3.3 6 5 C4.02 5 2.04 5 0 5 C0 3.35 0 1.7 0 0 Z " fill="#0F0600" transform="translate(140,123)"/>
<path d="M0 0 C1.98 0 3.96 0 6 0 C6 1.65 6 3.3 6 5 C4.02 5 2.04 5 0 5 C0 3.35 0 1.7 0 0 Z " fill="#100500" transform="translate(111,123)"/>
<path d="M0 0 C1.65 0 3.3 0 5 0 C5 1.98 5 3.96 5 6 C3.35 6 1.7 6 0 6 C0 4.02 0 2.04 0 0 Z " fill="#5BA32B" transform="translate(221,117)"/>
<path d="M0 0 C1.65 0 3.3 0 5 0 C5 1.98 5 3.96 5 6 C3.35 6 1.7 6 0 6 C0 4.02 0 2.04 0 0 Z " fill="#5BA32B" transform="translate(31,117)"/>
<path d="M0 0 C1.98 0 3.96 0 6 0 C6 1.65 6 3.3 6 5 C4.02 5 2.04 5 0 5 C0 3.35 0 1.7 0 0 Z " fill="#83AA00" transform="translate(163,100)"/>
<path d="M0 0 C1.98 0 3.96 0 6 0 C6 1.65 6 3.3 6 5 C4.02 5 2.04 5 0 5 C0 3.35 0 1.7 0 0 Z " fill="#83AA00" transform="translate(140,100)"/>
<path d="M0 0 C1.98 0 3.96 0 6 0 C6 1.65 6 3.3 6 5 C4.02 5 2.04 5 0 5 C0 3.35 0 1.7 0 0 Z " fill="#83AA00" transform="translate(88,100)"/>
<path d="M0 0 C1.65 0 3.3 0 5 0 C5 1.98 5 3.96 5 6 C3.35 6 1.7 6 0 6 C0 4.02 0 2.04 0 0 Z " fill="#5EA82C" transform="translate(181,88)"/>
<path d="M0 0 C1.65 0 3.3 0 5 0 C5 1.98 5 3.96 5 6 C3.35 6 1.7 6 0 6 C0 4.02 0 2.04 0 0 Z " fill="#090D03" transform="translate(175,88)"/>
<path d="M0 0 C1.65 0 3.3 0 5 0 C5 1.98 5 3.96 5 6 C3.35 6 1.7 6 0 6 C0 4.02 0 2.04 0 0 Z " fill="#090D03" transform="translate(77,88)"/>
<path d="M0 0 C1.65 0 3.3 0 5 0 C5 1.98 5 3.96 5 6 C3.35 6 1.7 6 0 6 C0 4.02 0 2.04 0 0 Z " fill="#5EA82C" transform="translate(71,88)"/>
<path d="M0 0 C1.65 0 3.3 0 5 0 C5 1.98 5 3.96 5 6 C3.35 6 1.7 6 0 6 C0 4.02 0 2.04 0 0 Z " fill="#60AB2D" transform="translate(175,82)"/>
<path d="M0 0 C1.65 0 3.3 0 5 0 C5 1.98 5 3.96 5 6 C3.35 6 1.7 6 0 6 C0 4.02 0 2.04 0 0 Z " fill="#60AB2D" transform="translate(77,82)"/>
<path d="M0 0 C1.98 0 3.96 0 6 0 C6 1.65 6 3.3 6 5 C4.02 5 2.04 5 0 5 C0 3.35 0 1.7 0 0 Z " fill="#090D03" transform="translate(163,77)"/>
<path d="M0 0 C1.98 0 3.96 0 6 0 C6 1.65 6 3.3 6 5 C4.02 5 2.04 5 0 5 C0 3.35 0 1.7 0 0 Z " fill="#090D03" transform="translate(88,77)"/>
<path d="M0 0 C1.98 0 3.96 0 6 0 C6 1.65 6 3.3 6 5 C4.02 5 2.04 5 0 5 C0 3.35 0 1.7 0 0 Z " fill="#60AB2D" transform="translate(82,77)"/>
<path d="M0 0 C1.98 0 3.96 0 6 0 C6 1.65 6 3.3 6 5 C4.02 5 2.04 5 0 5 C0 3.35 0 1.7 0 0 Z " fill="#5EA82C" transform="translate(88,71)"/>
<path d="M0 0 C1.65 0 3.3 0 5 0 C5 1.98 5 3.96 5 6 C3.35 6 1.7 6 0 6 C0 4.02 0 2.04 0 0 Z " fill="#5FA92D" transform="translate(221,65)"/>
<path d="M0 0 C1.65 0 3.3 0 5 0 C5 1.98 5 3.96 5 6 C3.35 6 1.7 6 0 6 C0 4.02 0 2.04 0 0 Z " fill="#5FA92D" transform="translate(31,65)"/>
<path d="M0 0 C1.65 0 3.3 0 5 0 C5 1.98 5 3.96 5 6 C3.35 6 1.7 6 0 6 C0 4.02 0 2.04 0 0 Z " fill="#4B6D2E" transform="translate(215,48)"/>
<path d="M0 0 C1.65 0 3.3 0 5 0 C5 1.98 5 3.96 5 6 C3.35 6 1.7 6 0 6 C0 4.02 0 2.04 0 0 Z " fill="#4B6D2E" transform="translate(37,48)"/>
<path d="M0 0 C1.98 0 3.96 0 6 0 C6 1.65 6 3.3 6 5 C4.02 5 2.04 5 0 5 C0 3.35 0 1.7 0 0 Z " fill="#4B6D2E" transform="translate(203,37)"/>
<path d="M0 0 C1.98 0 3.96 0 6 0 C6 1.65 6 3.3 6 5 C4.02 5 2.04 5 0 5 C0 3.35 0 1.7 0 0 Z " fill="#4B6D2E" transform="translate(48,37)"/>
<path d="M0 0 C1.98 0 3.96 0 6 0 C6 1.65 6 3.3 6 5 C4.02 5 2.04 5 0 5 C0 3.35 0 1.7 0 0 Z " fill="#5FA92D" transform="translate(186,31)"/>
<path d="M0 0 C1.98 0 3.96 0 6 0 C6 1.65 6 3.3 6 5 C4.02 5 2.04 5 0 5 C0 3.35 0 1.7 0 0 Z " fill="#5FA92D" transform="translate(65,31)"/>
<path d="M0 0 C2.97 0.495 2.97 0.495 6 1 C6 2.65 6 4.3 6 6 C4.35 6 2.7 6 1 6 C0.67 4.02 0.34 2.04 0 0 Z " fill="#60AC2D" transform="translate(30,134)"/>
<path d="M0 0 C1.65 0 3.3 0 5 0 C5.5625 1.9375 5.5625 1.9375 6 4 C5 5 5 5 2.4375 5.0625 C1.2309375 5.0315625 1.2309375 5.0315625 0 5 C0 3.35 0 1.7 0 0 Z " fill="#90BB00" transform="translate(146,158)"/>
<path d="M0 0 C1.65 0 3.3 0 5 0 C5 1.65 5 3.3 5 5 C3.35 5 1.7 5 0 5 C0 3.35 0 1.7 0 0 Z " fill="#5FA92C" transform="translate(175,169)"/>
<path d="M0 0 C1.65 0 3.3 0 5 0 C5 1.65 5 3.3 5 5 C3.35 5 1.7 5 0 5 C0 3.35 0 1.7 0 0 Z " fill="#5FA92C" transform="translate(77,169)"/>
<path d="M0 0 C1.65 0 3.3 0 5 0 C5 1.65 5 3.3 5 5 C3.35 5 1.7 5 0 5 C0 3.35 0 1.7 0 0 Z " fill="#90BB00" transform="translate(106,158)"/>
<path d="M0 0 C1.65 0 3.3 0 5 0 C5 1.65 5 3.3 5 5 C3.35 5 1.7 5 0 5 C0 3.35 0 1.7 0 0 Z " fill="#7BA100" transform="translate(77,158)"/>
<path d="M0 0 C1.65 0 3.3 0 5 0 C5 1.65 5 3.3 5 5 C3.35 5 1.7 5 0 5 C0 3.35 0 1.7 0 0 Z " fill="#90BA00" transform="translate(175,152)"/>
<path d="M0 0 C1.65 0 3.3 0 5 0 C5 1.65 5 3.3 5 5 C3.35 5 1.7 5 0 5 C0 3.35 0 1.7 0 0 Z " fill="#7EA500" transform="translate(152,152)"/>
<path d="M0 0 C1.65 0 3.3 0 5 0 C5 1.65 5 3.3 5 5 C3.35 5 1.7 5 0 5 C0 3.35 0 1.7 0 0 Z " fill="#7EA500" transform="translate(100,152)"/>
<path d="M0 0 C1.65 0 3.3 0 5 0 C5 1.65 5 3.3 5 5 C3.35 5 1.7 5 0 5 C0 3.35 0 1.7 0 0 Z " fill="#90BB00" transform="translate(146,146)"/>
<path d="M0 0 C1.65 0 3.3 0 5 0 C5 1.65 5 3.3 5 5 C3.35 5 1.7 5 0 5 C0 3.35 0 1.7 0 0 Z " fill="#90BB00" transform="translate(106,146)"/>
<path d="M0 0 C1.65 0 3.3 0 5 0 C5 1.65 5 3.3 5 5 C3.35 5 1.7 5 0 5 C0 3.35 0 1.7 0 0 Z " fill="#90BB00" transform="translate(152,134)"/>
<path d="M0 0 C1.65 0 3.3 0 5 0 C5 1.65 5 3.3 5 5 C3.35 5 1.7 5 0 5 C0 3.35 0 1.7 0 0 Z " fill="#90BB00" transform="translate(100,134)"/>
<path d="M0 0 C1.65 0 3.3 0 5 0 C5 1.65 5 3.3 5 5 C3.35 5 1.7 5 0 5 C0 3.35 0 1.7 0 0 Z " fill="#4A6C2B" transform="translate(198,129)"/>
<path d="M0 0 C1.65 0 3.3 0 5 0 C5 1.65 5 3.3 5 5 C3.35 5 1.7 5 0 5 C0 3.35 0 1.7 0 0 Z " fill="#4A6C2B" transform="translate(54,129)"/>
<path d="M0 0 C1.65 0 3.3 0 5 0 C5 1.65 5 3.3 5 5 C3.35 5 1.7 5 0 5 C0 3.35 0 1.7 0 0 Z " fill="#AED13E" transform="translate(66,118)"/>
<path d="M0 0 C1.65 0 3.3 0 5 0 C5 1.65 5 3.3 5 5 C3.35 5 1.7 5 0 5 C0 3.35 0 1.7 0 0 Z " fill="#82A800" transform="translate(112,100)"/>
<path d="M0 0 C1.65 0 3.3 0 5 0 C5 1.65 5 3.3 5 5 C3.35 5 1.7 5 0 5 C0 3.35 0 1.7 0 0 Z " fill="#030701" transform="translate(181,94)"/>
<path d="M0 0 C1.65 0 3.3 0 5 0 C5 1.65 5 3.3 5 5 C3.35 5 1.7 5 0 5 C0 3.35 0 1.7 0 0 Z " fill="#AED03F" transform="translate(175,95)"/>
<path d="M0 0 C1.65 0 3.3 0 5 0 C5 1.65 5 3.3 5 5 C3.35 5 1.7 5 0 5 C0 3.35 0 1.7 0 0 Z " fill="#040702" transform="translate(71,94)"/>
<path d="M0 0 C1.65 0 3.3 0 5 0 C5 1.65 5 3.3 5 5 C3.35 5 1.7 5 0 5 C0 3.35 0 1.7 0 0 Z " fill="#61AD2D" transform="translate(187,94)"/>
<path d="M0 0 C1.65 0 3.3 0 5 0 C5 1.65 5 3.3 5 5 C3.35 5 1.7 5 0 5 C0 3.35 0 1.7 0 0 Z " fill="#61AD2D" transform="translate(65,94)"/>
<path d="M0 0 C1.65 0 3.3 0 5 0 C5 1.65 5 3.3 5 5 C3.35 5 1.7 5 0 5 C0 3.35 0 1.7 0 0 Z " fill="#AFD240" transform="translate(169,89)"/>
<path d="M0 0 C1.65 0 3.3 0 5 0 C5 1.65 5 3.3 5 5 C3.35 5 1.7 5 0 5 C0 3.35 0 1.7 0 0 Z " fill="#030401" transform="translate(169,83)"/>
<path d="M0 0 C1.65 0 3.3 0 5 0 C5 1.65 5 3.3 5 5 C3.35 5 1.7 5 0 5 C0 3.35 0 1.7 0 0 Z " fill="#A2CE1C" transform="translate(152,83)"/>
<path d="M0 0 C1.65 0 3.3 0 5 0 C5 1.65 5 3.3 5 5 C3.35 5 1.7 5 0 5 C0 3.35 0 1.7 0 0 Z " fill="#AFD240" transform="translate(89,83)"/>
<path d="M0 0 C1.65 0 3.3 0 5 0 C5 1.65 5 3.3 5 5 C3.35 5 1.7 5 0 5 C0 3.35 0 1.7 0 0 Z " fill="#61AD2D" transform="translate(164,71)"/>
</svg>
