<svg width="260" height="261" viewBox="0 0 260 261" fill="none" xmlns="http://www.w3.org/2000/svg">
<rect y="0.00292969" width="260" height="260" rx="36" fill="url(#paint0_linear_434_128)"/>
<path d="M163.365 106.468L172.737 117.479C173.809 118.715 174.761 119.733 175.145 120.311C177.948 123.096 179.519 126.861 179.517 130.783C179.254 135.411 176.238 138.562 173.445 141.933L166.887 149.633L163.467 153.622C163.344 153.76 163.265 153.93 163.239 154.111C163.213 154.293 163.242 154.477 163.322 154.643C163.401 154.809 163.528 154.947 163.687 155.043C163.846 155.138 164.03 155.185 164.216 155.178H198.401C203.623 155.178 210.201 159.566 209.817 166.229C209.806 169.257 208.581 172.158 206.408 174.299C204.236 176.44 201.292 177.648 198.219 177.658H144.684C141.162 177.658 131.69 178.037 129.038 169.959C128.474 168.271 128.397 166.462 128.815 164.733C129.586 162.176 130.805 159.773 132.418 157.632C135.11 153.642 138.025 149.653 140.899 145.783C144.603 140.717 148.408 135.81 152.152 130.643C152.285 130.475 152.358 130.268 152.358 130.055C152.358 129.842 152.285 129.635 152.152 129.467L138.551 113.509C138.462 113.393 138.348 113.3 138.216 113.235C138.084 113.17 137.939 113.137 137.792 113.137C137.645 113.137 137.5 113.17 137.368 113.235C137.236 113.3 137.122 113.393 137.033 113.509C133.39 118.356 117.44 139.819 114.04 144.168C110.64 148.516 102.26 148.755 97.6252 144.168L76.3528 123.124C76.217 122.989 76.0435 122.897 75.8549 122.86C75.666 122.823 75.4703 122.842 75.2926 122.915C75.1147 122.988 74.9627 123.111 74.856 123.268C74.7493 123.426 74.6927 123.612 74.6931 123.802V164.274C74.7431 167.146 73.8802 169.961 72.225 172.326C70.5699 174.69 68.2057 176.485 65.4635 177.459C63.7113 178.06 61.8389 178.239 60.0019 177.982C58.1651 177.725 56.4174 177.039 54.9042 175.981C53.391 174.923 52.1564 173.524 51.3033 171.901C50.4503 170.277 50.0034 168.476 50 166.648V93.8813C50.122 91.259 51.0794 88.7413 52.7363 86.6859C54.3931 84.6305 56.6651 83.142 59.2295 82.4318C61.4292 81.8543 63.7447 81.8601 65.9414 82.4486C68.1381 83.037 70.1378 84.1875 71.738 85.783L104.446 118.057C104.544 118.155 104.663 118.231 104.794 118.278C104.924 118.326 105.064 118.345 105.203 118.334C105.342 118.322 105.477 118.281 105.598 118.212C105.719 118.144 105.823 118.05 105.903 117.937L129.139 86.2416C130.213 84.955 131.559 83.9152 133.084 83.1951C134.608 82.4749 136.274 82.092 137.964 82.0728H198.401C200.055 82.0756 201.69 82.4262 203.195 83.1014C204.7 83.7768 206.042 84.7611 207.13 85.9884C208.219 87.2158 209.029 88.6581 209.506 90.2188C209.983 91.7796 210.117 93.4227 209.898 95.0382C209.472 97.8409 208.029 100.396 205.837 102.23C203.644 104.064 200.852 105.053 197.976 105.012H164.135C163.965 105.016 163.799 105.065 163.654 105.153C163.51 105.242 163.392 105.367 163.314 105.516C163.235 105.665 163.199 105.832 163.208 105.999C163.217 106.166 163.271 106.328 163.365 106.468Z" fill="white"/>
<defs>
<linearGradient id="paint0_linear_434_128" x1="0" y1="0.00292969" x2="260" y2="260.003" gradientUnits="userSpaceOnUse">
<stop stop-color="#9B0EB0"/>
<stop offset="0.9999" stop-color="#EC4E9A"/>
<stop offset="1" stop-color="#9B0EB0" stop-opacity="0"/>
</linearGradient>
</defs>
</svg>
